<svg xmlns="http://www.w3.org/2000/svg" viewBox="0 0 2010 2010" id="add-favourite"><path fill="none" stroke="#303030" stroke-linecap="round" stroke-linejoin="round" stroke-width="90" d="M1005,1520.03c-31.07,0-61.79-6.51-90.2-19.1-81.3-36.2-199.5-100.9-300.7-203.9-57.6-58.5-103-122.9-135-191.6-37.8-80.9-57.5-168.6-58.5-260.6-.75-50.03,8.88-99.68,28.3-145.8,18.62-43.95,46.17-83.55,80.9-116.3,34.09-32.06,74.43-56.75,118.5-72.5,45.9-16.4,94.5-22.9,144.5-19.3,79.27,5.72,154.18,38.48,212.2,92.8,58.02-54.32,132.93-87.08,212.2-92.8,50-3.6,98.6,2.9,144.5,19.3,89.96,32.21,162.27,100.71,199.3,188.8,19.5,46.1,29.17,95.75,28.4,145.8-1,92-20.7,179.7-58.5,260.6-32,68.7-77.4,133.1-135,191.6-101.2,103-219.4,167.7-300.7,203.9-28.41,12.59-59.13,19.09-90.2,19.1Z"></path><line x1="842.54" x2="1167.46" y1="1005" y2="1005" fill="none" stroke="#303030" stroke-linecap="round" stroke-linejoin="round" stroke-width="90"></line><line x1="1005" x2="1005" y1="842.54" y2="1167.46" fill="none" stroke="#303030" stroke-linecap="round" stroke-linejoin="round" stroke-width="90"></line></svg>