<?xml version="1.0" encoding="UTF-8" standalone="no"?> <svg id="Line" xmlns="http://www.w3.org/2000/svg" viewBox="0 0 64 64"><title>1</title><path d="M54,11.19482H47.57129a4.00016,4.00016,0,0,0-8-.00577c.00625.00511-15.14873.00583-15.14258-.00007a4,4,0,1,0-8,.00584H10a6.00657,6.00657,0,0,0-6,6V50.80811a6.00657,6.00657,0,0,0,6,6H54a6.00657,6.00657,0,0,0,6-6V17.19482A6.00657,6.00657,0,0,0,54,11.19482Zm-44,2h6.42871a4.0015,4.0015,0,0,0,4,3.99707,1.00016,1.00016,0,0,0-.003-2,1.99917,1.99917,0,0,1-1.997-1.99708V11.189a2,2,0,0,1,4,.00293H20.95508a1.0002,1.0002,0,0,0,.00007,2H39.57129a4.00149,4.00149,0,0,0,3.99707,4,1.00016,1.00016,0,0,0-.00007-2,1.99916,1.99916,0,0,1-1.997-1.99708V11.189a2,2,0,0,1,4,.00586H44.09961a1.00018,1.00018,0,0,0,.00005,2H54a4.00428,4.00428,0,0,1,4,4v5.56836H6V17.19482A4.00428,4.00428,0,0,1,10,13.19482ZM54,54.80811H10a4.00428,4.00428,0,0,1-4-4V24.76318H58V50.80811A4.00428,4.00428,0,0,1,54,54.80811Z"/><path d="M48,27.78564a3.00019,3.00019,0,0,0,.00009,6A3.00019,3.00019,0,0,0,48,27.78564Zm0,4a1.00019,1.00019,0,0,1,.00006-2A1.00019,1.00019,0,0,1,48,31.78564Z"/><path d="M48,36.78564a3.00019,3.00019,0,0,0,.00009,6A3.00019,3.00019,0,0,0,48,36.78564Zm0,4a1.00019,1.00019,0,0,1,.00006-2A1.00019,1.00019,0,0,1,48,40.78564Z"/><path d="M48,45.78564a3.00019,3.00019,0,0,0,.00009,6A3.00019,3.00019,0,0,0,48,45.78564Zm0,4a1.00019,1.00019,0,0,1,.00006-2A1.00019,1.00019,0,0,1,48,49.78564Z"/><path d="M32,27.78564a3.00019,3.00019,0,0,0,.00009,6A3.00019,3.00019,0,0,0,32,27.78564Zm0,4a1.00019,1.00019,0,0,1,.00006-2A1.00019,1.00019,0,0,1,32,31.78564Z"/><path d="M32,36.78564a3.00019,3.00019,0,0,0,.00009,6A3.00019,3.00019,0,0,0,32,36.78564Zm0,4a1.00019,1.00019,0,0,1,.00006-2A1.00019,1.00019,0,0,1,32,40.78564Z"/><path d="M32,45.78564a3.00019,3.00019,0,0,0,.00009,6A3.00019,3.00019,0,0,0,32,45.78564Zm0,4a1.00019,1.00019,0,0,1,.00006-2A1.00019,1.00019,0,0,1,32,49.78564Z"/><path d="M16,27.78564a3.00019,3.00019,0,0,0,.00009,6A3.00019,3.00019,0,0,0,16,27.78564Zm0,4a1.00019,1.00019,0,0,1,.00006-2A1.00019,1.00019,0,0,1,16,31.78564Z"/><path d="M16,36.78564a3.00019,3.00019,0,0,0,.00009,6A3.00019,3.00019,0,0,0,16,36.78564Zm0,4a1.00019,1.00019,0,0,1,.00006-2A1.00019,1.00019,0,0,1,16,40.78564Z"/><path d="M16,45.78564a3.00019,3.00019,0,0,0,.00009,6A3.00019,3.00019,0,0,0,16,45.78564Zm0,4a1.00019,1.00019,0,0,1,.00006-2A1.00019,1.00019,0,0,1,16,49.78564Z"/></svg>