<svg xmlns="http://www.w3.org/2000/svg" viewBox="0 0 750 500"><g id="freepik--background-simple--inject-8"><path d="M651.72,163.5c-12.4-46.28-49.24-84.79-94.1-97.12s-96.05,2.48-127.76,37.83c-15.49,17.26-26.65,39-45.15,52.71-22.52,16.69-52.09,18.68-79.66,16.93s-55.43-6.63-82.61-1.37c-43.56,8.43-81,44.76-92,89.21s5.18,94.62,39.61,123.2l38.07,31.5c34.91,25.35,167.16,35.93,249.51,29.66,58.29-4.44,98.11-26.81,133.21-61.73,27.16-27,43.25-63.87,54-101.18C656.1,244.29,662.15,202.44,651.72,163.5Z" style="fill:#f5f5f5"></path></g><g id="freepik--Floor--inject-8"><path d="M675,455.83c0,.14-137.39.26-306.82.26S61.36,456,61.36,455.83s137.36-.26,306.86-.26S675,455.69,675,455.83Z" style="fill:#263238"></path></g><g id="freepik--Stopwatch--inject-8"><rect x="482.04" y="108.34" width="12.52" height="19.54" transform="matrix(0.76, -0.65, 0.65, 0.76, 41.07, 346.95)" style="fill:#263238"></rect><path d="M495.58,106.67,476,123.49l-13.73-16c5.4-7.58,11.84-13.3,19.55-16.82Z" style="fill:#455a64"></path><path d="M479.3,120.67c-.11.1-3.42-3.54-7.4-8.11s-7.12-8.35-7-8.45,3.42,3.54,7.4,8.11S479.41,120.58,479.3,120.67Z" style="fill:#263238"></path><path d="M483,117.47A23.15,23.15,0,0,1,480.8,115c-1.32-1.55-3.11-3.7-5.08-6.1l-5-6.16-1.5-1.87c-.36-.46-.55-.67-.55-.7.2-.18,3.53,3.61,7.47,8.4,2,2.4,3.72,4.59,5,6.2A18.59,18.59,0,0,1,483,117.47Z" style="fill:#263238"></path><path d="M488,113.2a22.56,22.56,0,0,1-2.23-2.47c-1.33-1.57-3.13-3.76-5.11-6.19l-5-6.26-1.5-1.91a5.13,5.13,0,0,1-.52-.73,14.13,14.13,0,0,1,2.3,2.41c1.35,1.55,3.17,3.73,5.14,6.16s3.74,4.66,5,6.29A19.7,19.7,0,0,1,488,113.2Z" style="fill:#263238"></path><path d="M492.51,109.2c-.11.09-3.4-3.58-7.35-8.2s-7.05-8.45-6.94-8.55,3.39,3.58,7.34,8.21S492.62,109.11,492.51,109.2Z" style="fill:#263238"></path><rect x="637.26" y="110.4" width="12.52" height="19.54" transform="translate(285.81 -428.11) rotate(46.3)" style="fill:#263238"></rect><path d="M655.33,126.84l-17.82-18.65,15.23-14.55c7.84,5,13.9,11.13,17.81,18.65Z" style="fill:#455a64"></path><path d="M640.49,111.32c-.1-.11,3.35-3.61,7.71-7.82s8-7.54,8.07-7.44-3.35,3.6-7.71,7.82S640.59,111.42,640.49,111.32Z" style="fill:#263238"></path><path d="M643.89,114.87a20.93,20.93,0,0,1,2.32-2.34c1.47-1.4,3.53-3.31,5.82-5.41l5.89-5.33,1.79-1.6c.43-.38.64-.57.67-.58.19.19-3.42,3.72-8,7.9-2.29,2.09-4.39,4-5.93,5.29A20.91,20.91,0,0,1,643.89,114.87Z" style="fill:#263238"></path><path d="M648.41,119.6a21,21,0,0,1,2.35-2.36c1.49-1.41,3.58-3.33,5.91-5.43l6-5.34,1.83-1.6a8.5,8.5,0,0,1,.7-.56,14.09,14.09,0,0,1-2.28,2.43c-1.48,1.43-3.57,3.36-5.89,5.46s-4.46,4-6,5.32A21.74,21.74,0,0,1,648.41,119.6Z" style="fill:#263238"></path><path d="M652.64,123.91c-.1-.11,3.4-3.58,7.81-7.77s8.07-7.49,8.17-7.38-3.4,3.58-7.81,7.76S652.74,124,652.64,123.91Z" style="fill:#263238"></path><rect x="560.26" y="74.72" width="14.82" height="23.13" style="fill:#263238"></rect><path d="M583,81.64H552.5V56.71c10.69-2.64,20.89-2.8,30.53,0Z" style="fill:#C8FDC7"></path><path d="M583.39,56.81a6.38,6.38,0,0,1-1.13.56,27.37,27.37,0,0,1-3.21,1.18,38.36,38.36,0,0,1-5,1.18,42.23,42.23,0,0,1-6.21.52,41.32,41.32,0,0,1-6.21-.46,37.5,37.5,0,0,1-5-1.13,29.31,29.31,0,0,1-3.22-1.15,5.28,5.28,0,0,1-1.13-.55c0-.09,1.68.6,4.45,1.34a43,43,0,0,0,4.94,1,46.53,46.53,0,0,0,6.14.42,46.24,46.24,0,0,0,6.14-.48,44.16,44.16,0,0,0,4.92-1C581.71,57.43,583.35,56.72,583.39,56.81Z" style="fill:#263238"></path><path d="M562.58,81.57c-.14,0-.26-4.79-.26-10.69s.12-10.69.26-10.69.26,4.78.26,10.69S562.73,81.57,562.58,81.57Z" style="fill:#263238"></path><path d="M568.39,81.71c-.14,0-.26-4.81-.26-10.74s.12-10.73.26-10.73.26,4.8.26,10.73S568.54,81.71,568.39,81.71Z" style="fill:#263238"></path><path d="M574.2,81.62c-.14,0-.26-4.81-.26-10.74s.12-10.74.26-10.74.26,4.81.26,10.74S574.35,81.62,574.2,81.62Z" style="fill:#263238"></path><path d="M579,81.62c-.15,0-.26-5.2-.26-11.61s.11-11.61.26-11.61.26,5.2.26,11.61S579.18,81.62,579,81.62Z" style="fill:#263238"></path><path d="M557.09,81.47c-.14,0-.26-5.2-.26-11.61s.12-11.61.26-11.61.26,5.2.26,11.61S557.24,81.47,557.09,81.47Z" style="fill:#263238"></path><circle cx="565.88" cy="198.53" r="107.83" transform="translate(25.36 458.28) rotate(-45)" style="fill:#C8FDC7"></circle><circle cx="565.88" cy="197.67" r="90.56" style="fill:#fafafa"></circle><path d="M656.44,197.67s0-.49-.07-1.46,0-2.42-.19-4.31a90.06,90.06,0,0,0-2.58-16.34,88.71,88.71,0,0,0-3.71-11.36,87.7,87.7,0,0,0-6.3-12.74,91.65,91.65,0,0,0-23-25.69,90.2,90.2,0,0,0-38.05-16.88,92.06,92.06,0,0,0-35.41.41,97.55,97.55,0,0,0-12.08,3.45,90.57,90.57,0,0,0-42,31.49,88.45,88.45,0,0,0-7.36,11.86c-1.11,2.07-2.06,4.22-3,6.38s-1.78,4.4-2.49,6.68a86.38,86.38,0,0,0-3.44,14,97.42,97.42,0,0,0-1.19,14.53,99,99,0,0,0,1.18,14.54,88.92,88.92,0,0,0,3.44,14c.72,2.27,1.62,4.47,2.49,6.67s1.92,4.32,3,6.39a87.5,87.5,0,0,0,7.37,11.86,90.54,90.54,0,0,0,42,31.5,97.55,97.55,0,0,0,12.08,3.45,90.86,90.86,0,0,0,12.11,1.69,89.78,89.78,0,0,0,23.3-1.28,90.2,90.2,0,0,0,38.05-16.88,91.49,91.49,0,0,0,23-25.69,88.2,88.2,0,0,0,6.3-12.74,89.87,89.87,0,0,0,6.29-27.7c.17-1.89.14-3.34.19-4.31s.07-1.47.07-1.47,0,.5,0,1.47,0,2.42-.14,4.31a88.72,88.72,0,0,1-6.17,27.79,87.47,87.47,0,0,1-6.28,12.8,91.66,91.66,0,0,1-23,25.83,90.58,90.58,0,0,1-38.2,17,90.14,90.14,0,0,1-23.41,1.32,91.5,91.5,0,0,1-12.17-1.69,96.42,96.42,0,0,1-12.15-3.46,91,91,0,0,1-42.25-31.65,88.34,88.34,0,0,1-7.4-11.92c-1.12-2.08-2.08-4.26-3.06-6.43s-1.78-4.42-2.5-6.71a88.83,88.83,0,0,1-3.46-14.06,90.4,90.4,0,0,1,0-29.24,89,89,0,0,1,3.46-14c.73-2.29,1.63-4.5,2.51-6.71s1.93-4.34,3.05-6.42a89.42,89.42,0,0,1,7.41-11.92,90.92,90.92,0,0,1,42.24-31.64,96.76,96.76,0,0,1,12.14-3.46,91.88,91.88,0,0,1,12.18-1.69,90.06,90.06,0,0,1,23.4,1.32,90.26,90.26,0,0,1,38.2,17,91.74,91.74,0,0,1,23,25.84,91.26,91.26,0,0,1,10,24.2,89.69,89.69,0,0,1,2.49,16.39c.15,1.89.1,3.34.14,4.31S656.44,197.67,656.44,197.67Z" style="fill:#263238"></path><path d="M643.15,194.39c-2.87.12-5.21,0-5.22-.25s2.3-.59,5.17-.75,5.21-.06,5.23.24S646,194.27,643.15,194.39Z" style="fill:#263238"></path><path d="M641.22,215.24c-2.8-.66-5-1.39-5-1.64s2.38.05,5.19.66,5,1.35,5,1.64S644,215.89,641.22,215.24Z" style="fill:#263238"></path><path d="M633.75,234.79c-2.53-1.38-4.47-2.69-4.35-2.91s2.28.69,4.82,2,4.49,2.66,4.35,2.92S636.27,236.18,633.75,234.79Z" style="fill:#263238"></path><path d="M621.3,251.63c-2.06-2-3.59-3.78-3.41-4s2,1.27,4.1,3.25,3.61,3.75,3.41,4S623.35,253.64,621.3,251.63Z" style="fill:#263238"></path><path d="M604.8,264.53c-1.44-2.49-2.44-4.61-2.22-4.74s1.6,1.77,3.08,4.23,2.48,4.58,2.23,4.74S606.25,267,604.8,264.53Z" style="fill:#263238"></path><path d="M585.45,272.52c-.72-2.79-1.11-5.1-.86-5.16s1.06,2.13,1.83,4.9,1.15,5.08.86,5.16S586.17,275.3,585.45,272.52Z" style="fill:#263238"></path><path d="M564.66,275c0-2.88.29-5.21.54-5.21s.46,2.34.46,5.21-.25,5.21-.54,5.21S564.61,277.89,564.66,275Z" style="fill:#263238"></path><path d="M544,271.87c.82-2.76,1.68-4.93,1.93-4.86s-.19,2.37-1,5.14-1.64,5-1.93,4.86S543.13,274.63,544,271.87Z" style="fill:#263238"></path><path d="M524.87,263.26c1.53-2.43,2.94-4.3,3.16-4.17s-.82,2.24-2.31,4.7-2.91,4.32-3.16,4.17S523.34,265.7,524.87,263.26Z" style="fill:#263238"></path><path d="M508.78,249.86c2.13-1.94,4-3.36,4.16-3.17s-1.38,1.93-3.48,3.9-3.95,3.39-4.16,3.18S506.66,251.8,508.78,249.86Z" style="fill:#263238"></path><path d="M496.86,232.64c2.57-1.29,4.75-2.16,4.86-1.94s-1.85,1.49-4.4,2.83-4.72,2.21-4.86,1.94S494.3,233.94,496.86,232.64Z" style="fill:#263238"></path><path d="M490,212.86c2.83-.56,5.16-.81,5.21-.56s-2.19.94-5,1.54-5.15.85-5.21.56S487.2,213.42,490,212.86Z" style="fill:#263238"></path><path d="M488.73,192c2.87.21,5.18.59,5.17.84s-2.36.32-5.23.15-5.19-.54-5.17-.84S485.86,191.74,488.73,192Z" style="fill:#263238"></path><path d="M493.08,171.47c2.71,1,4.83,2,4.75,2.21s-2.36-.33-5.08-1.27-4.84-1.92-4.75-2.2S490.38,170.49,493.08,171.47Z" style="fill:#263238"></path><path d="M502.79,152.92c2.34,1.67,4.12,3.19,4,3.4s-2.18-.95-4.55-2.58-4.15-3.15-4-3.4S500.44,151.25,502.79,152.92Z" style="fill:#263238"></path><path d="M517.1,137.64c1.81,2.23,3.12,4.17,2.93,4.34s-1.86-1.5-3.7-3.71-3.16-4.14-2.93-4.33S515.29,135.41,517.1,137.64Z" style="fill:#263238"></path><path d="M535,126.74c1.14,2.64,1.89,4.86,1.65,5s-1.38-1.94-2.56-4.56-1.93-4.84-1.66-5S533.83,124.11,535,126.74Z" style="fill:#263238"></path><path d="M555.14,121.07c.39,2.85.51,5.19.25,5.23s-.81-2.24-1.24-5.08-.55-5.19-.26-5.23S554.75,118.22,555.14,121.07Z" style="fill:#263238"></path><path d="M576.08,121c-.38,2.85-.89,5.14-1.14,5.11s-.19-2.38.15-5.23.85-5.15,1.14-5.11S576.46,118.14,576.08,121Z" style="fill:#263238"></path><path d="M596.27,126.53c-1.13,2.65-2.24,4.71-2.48,4.61s.47-2.33,1.56-5,2.21-4.72,2.48-4.6S597.41,123.89,596.27,126.53Z" style="fill:#263238"></path><path d="M614.23,137.3c-1.8,2.25-3.42,3.94-3.62,3.78s1.07-2.13,2.84-4.4,3.38-4,3.62-3.77S616,135.06,614.23,137.3Z" style="fill:#263238"></path><path d="M628.66,152.48c-2.34,1.68-4.35,2.88-4.5,2.67s1.6-1.76,3.91-3.48,4.32-2.91,4.5-2.67S631,150.8,628.66,152.48Z" style="fill:#263238"></path><path d="M638.49,171c-2.7,1-5,1.59-5.06,1.36s2-1.27,4.71-2.3,4.94-1.64,5.05-1.36S641.19,170,638.49,171Z" style="fill:#263238"></path><path d="M643,191.42c-2.87.23-5.21.21-5.23,0s2.28-.67,5.14-1,5.21-.25,5.23.05S645.84,191.19,643,191.42Z" style="fill:#263238"></path><path d="M530.71,99.7l-.31.14-.92.37c-.8.34-2,.75-3.53,1.42a105,105,0,0,0-12.53,6.25c-2.56,1.48-5.27,3.25-8.12,5.24s-5.76,4.31-8.67,6.92a102.19,102.19,0,0,0-28.39,41.53c-1.37,3.66-2.4,7.24-3.29,10.59s-1.49,6.55-1.94,9.47a105.92,105.92,0,0,0-1.27,13.94c-.08,1.66,0,2.94,0,3.81,0,.42,0,.74,0,1a2.14,2.14,0,0,1,0,.34,1.39,1.39,0,0,1,0-.33c0-.25,0-.58,0-1,0-.87-.11-2.15-.06-3.81a98.32,98.32,0,0,1,1.11-14c.42-2.94,1.07-6.13,1.88-9.52a108.59,108.59,0,0,1,3.26-10.65,101.18,101.18,0,0,1,28.53-41.73c2.93-2.61,5.91-4.86,8.73-6.91s5.6-3.75,8.19-5.21a99.25,99.25,0,0,1,12.63-6.12c1.53-.64,2.76-1,3.58-1.33l.94-.32A1.37,1.37,0,0,1,530.71,99.7Z" style="fill:#fff"></path><path d="M560.81,93.86a21.26,21.26,0,0,1-3.12.41c-1.94.2-4.6.49-7.54.87s-5.59.78-7.51,1.08a20.91,20.91,0,0,1-3.12.4,17.17,17.17,0,0,1,3.06-.76c1.91-.39,4.56-.85,7.5-1.23s5.63-.62,7.58-.73A16.82,16.82,0,0,1,560.81,93.86Z" style="fill:#fff"></path><g style="opacity:0.4"><path d="M493.5,252.11s46.93,74.06,119.73,36.13c76-39.6,34-130.37,34-130.37s35.76,72.34-38.32,119.5c-18.45,11.75-38.54,11.76-53.86,10.22C515.9,283.67,493.5,252.11,493.5,252.11Z"></path></g><path d="M591.12,149.54a311.16,311.16,0,0,1-1.2,39.81c-.46,4.79-1,9.63-2.85,14.08s-5,8.53-9.44,10.41-10.12,1.1-13.21-2.58Z" style="fill:#e0e0e0"></path><polygon points="563.91 190.53 596.82 135.11 576.96 197.68 566.81 200.71 563.91 190.53" style="fill:#C8FDC7"></polygon><g style="opacity:0.4"><polygon points="596.82 135.11 572.41 191.74 576.96 197.68 596.82 135.11"></polygon></g><circle cx="566.81" cy="200.71" r="10.59" style="fill:#fafafa"></circle><path d="M577.4,200.71a23,23,0,0,0-.43-2.56,10.58,10.58,0,0,0-3.86-5.71,10.39,10.39,0,0,0-9.83-1.45,9.6,9.6,0,0,0-2.61,1.41,9.73,9.73,0,0,0-2.19,2.2,10.33,10.33,0,0,0,0,12.22,10.53,10.53,0,0,0,4.8,3.62A10.46,10.46,0,0,0,577,203.27a22.18,22.18,0,0,0,.43-2.56,8.31,8.31,0,0,1-.23,2.61,10.56,10.56,0,0,1-3.84,6,10.67,10.67,0,0,1-4.53,2.05,10.83,10.83,0,0,1-5.68-.44,9.88,9.88,0,0,1-2.75-1.47,10.24,10.24,0,0,1-2.3-2.3,10.75,10.75,0,0,1,0-12.82,10.45,10.45,0,0,1,2.3-2.3,10.27,10.27,0,0,1,2.75-1.46,10.73,10.73,0,0,1,5.68-.44,10.68,10.68,0,0,1,8.37,8A8.32,8.32,0,0,1,577.4,200.71Z" style="fill:#263238"></path><circle cx="566.81" cy="200.71" r="7.88" transform="translate(257.79 716.53) rotate(-78.57)" style="fill:#455a64"></circle></g><g id="freepik--Calendar--inject-8"><polygon points="483.32 454.89 535.42 454.89 511.13 245.55 483.32 454.89" style="fill:#e0e0e0"></polygon><polygon points="226.96 245.55 193.04 457.36 482.49 461.13 511.13 245.55 226.96 245.55" style="fill:#fafafa"></polygon><polygon points="498.24 342.58 211.42 342.58 217.66 303.58 503.42 303.58 498.24 342.58" style="fill:#ebebeb"></polygon><path d="M498.26,342.61H211.39v0l6.25-39H503.45v0Zm-286.81-.05H498.22l5.17-39H217.69Z" style="fill:#263238"></path><polygon points="226.96 245.55 217.66 303.58 503.42 303.58 511.13 245.55 226.96 245.55" style="fill:#C8FDC7"></polygon><path d="M227,245.55l284.17-.24h.27l0,.27c-8.37,63.11-17.87,134.68-27.91,210.27l0,.23h-3.48L193.28,456H193l0-.25L227,245.55c-.28,1.74-13.2,82.95-33.47,210.3l-.21-.25,286.66,0h3.25l-.25.22c10.05-75.59,19.57-147.15,28-210.26l.23.26Z" style="fill:#263238"></path><path d="M503.42,303.58c0,.14-64,.26-142.87.26s-142.89-.12-142.89-.26,64-.26,142.89-.26S503.42,303.43,503.42,303.58Z" style="fill:#263238"></path><path d="M498.24,342.58c0,.15-64.34.26-143.68.26s-143.69-.11-143.69-.26,64.32-.26,143.69-.26S498.24,342.44,498.24,342.58Z" style="fill:#263238"></path><path d="M492.4,378.47c0,.15-64.33.26-143.67.26S205,378.62,205,378.47s64.32-.26,143.69-.26S492.4,378.33,492.4,378.47Z" style="fill:#263238"></path><path d="M486.57,414.36c0,.14-64.34.26-143.68.26s-143.69-.12-143.69-.26,64.32-.26,143.69-.26S486.57,414.22,486.57,414.36Z" style="fill:#263238"></path><path d="M233.67,456.14c-.14,0,5.11-34.2,11.74-76.32s12.1-76.27,12.24-76.24-5.11,34.18-11.73,76.32S233.82,456.16,233.67,456.14Z" style="fill:#263238"></path><path d="M277.9,456.14c-.15,0,5.11-34.2,11.73-76.32s12.1-76.27,12.25-76.24-5.11,34.18-11.74,76.32S278,456.16,277.9,456.14Z" style="fill:#263238"></path><path d="M319,454.61c-.14,0,5.06-33.85,11.61-75.55s12-75.51,12.13-75.48-5.06,33.84-11.61,75.56S319.13,454.63,319,454.61Z" style="fill:#263238"></path><path d="M359.65,455.82c-.14,0,5.1-34.13,11.71-76.16s12.08-76.11,12.22-76.08-5.1,34.11-11.71,76.16S359.79,455.84,359.65,455.82Z" style="fill:#263238"></path><path d="M400.5,455.82c-.14,0,5.1-34.13,11.71-76.16s12.08-76.11,12.22-76.08-5.09,34.11-11.7,76.16S400.65,455.84,400.5,455.82Z" style="fill:#263238"></path><path d="M441.32,456c-.14,0,5.11-34.17,11.73-76.27s12.09-76.22,12.24-76.19-5.11,34.16-11.73,76.27S441.46,456.06,441.32,456Z" style="fill:#263238"></path><g style="opacity:0.2"><path d="M415.62,306.3c4.92-2.18,8-7.3,9.27-12.53s1.07-10.69,1.26-16.08.83-10.94,3.58-15.57c1.63-2.73,3.92-5,5.73-7.63s3.15-5.83,2.48-9l-30.78.16Z"></path></g><path d="M288,345.47a1.63,1.63,0,0,1-.3.36l-.92,1c-.81.83-2,2-3.5,3.46-3,2.88-7.17,6.8-11.92,11s-9.15,7.86-12.38,10.46c-1.62,1.3-2.94,2.34-3.86,3l-1.07.8a1.48,1.48,0,0,1-.4.25s.11-.13.33-.33l1-.88,3.75-3.17c3.18-2.67,7.54-6.38,12.28-10.56s9-8.06,12-10.87l3.61-3.33,1-.89A1.92,1.92,0,0,1,288,345.47Z" style="fill:#263238"></path><path d="M285.69,376.2A11.8,11.8,0,0,1,284.5,375l-3.13-3.34c-2.7-2.87-6.32-6.73-10.31-11l-10.42-10.9-3.16-3.31a12.05,12.05,0,0,1-1.11-1.26,9.33,9.33,0,0,1,1.26,1.12c.78.74,1.9,1.83,3.27,3.19,2.74,2.72,6.48,6.53,10.53,10.81s7.65,8.22,10.21,11.11c1.28,1.44,2.31,2.62,3,3.44A9.25,9.25,0,0,1,285.69,376.2Z" style="fill:#263238"></path><path d="M296.37,354.66s.1-.26.31-.77a12.68,12.68,0,0,1,1.2-2.11,15.21,15.21,0,0,1,7.42-5.53,15.73,15.73,0,0,1,6.69-.88,17.49,17.49,0,0,1,7.6,2.59,20.3,20.3,0,0,1,6.55,6.5,17,17,0,0,1,2.73,9.93,11.36,11.36,0,0,1-1.71,5.34,13.62,13.62,0,0,1-4.12,4.16A19.87,19.87,0,0,1,311.16,377a20.52,20.52,0,0,1-6.4-1.39,15.24,15.24,0,0,1-5.6-3.8,13.07,13.07,0,0,1-1.94-2.91,12.69,12.69,0,0,1-1-3.38,16.16,16.16,0,0,1,.61-7.13,19.63,19.63,0,0,1,9.26-11.25,17.09,17.09,0,0,1,15.05-.69,15.78,15.78,0,0,1,6.31,4.83,15.14,15.14,0,0,1,3,7.49,14.65,14.65,0,0,1-1.29,8.08,13.56,13.56,0,0,1-2.38,3.44,16.26,16.26,0,0,1-3.3,2.59,20.25,20.25,0,0,1-16.09,1.5,18.37,18.37,0,0,1-7-4,12.87,12.87,0,0,1-3.89-6.91,11.39,11.39,0,0,1,1.05-7.7,9.56,9.56,0,0,1,2.54-3,11.92,11.92,0,0,1,3.4-1.79,21.35,21.35,0,0,1,7.44-1,28.34,28.34,0,0,1,7.26,1,15.4,15.4,0,0,1,6.31,3.38,11.33,11.33,0,0,1,3.38,6.06,13.18,13.18,0,0,1-.39,6.75,14,14,0,0,1-3.49,5.55,17.19,17.19,0,0,1-11.21,4.88,15,15,0,0,1-5.8-.84,11.84,11.84,0,0,1-4.68-3.09,12.67,12.67,0,0,1-2.71-4.61,13.45,13.45,0,0,1-.73-5,13.28,13.28,0,0,1,3.54-8.44,15.79,15.79,0,0,1,6.73-4.35,15.46,15.46,0,0,1,6.72-.64,18.09,18.09,0,0,1,8.61,3.47,16.72,16.72,0,0,1,1.85,1.58c.39.39.58.6.58.6s-.22-.19-.61-.56a19.58,19.58,0,0,0-1.88-1.54,18.26,18.26,0,0,0-8.57-3.35,15.38,15.38,0,0,0-13.21,5,12.93,12.93,0,0,0-3.43,8.25,13.21,13.21,0,0,0,.73,4.9,12.39,12.39,0,0,0,2.65,4.47,11.57,11.57,0,0,0,4.54,3,14.81,14.81,0,0,0,5.65.8,16.77,16.77,0,0,0,10.93-4.79,13.55,13.55,0,0,0,3.37-5.37,12.74,12.74,0,0,0,.36-6.52,10.92,10.92,0,0,0-3.25-5.82,15.1,15.1,0,0,0-6.12-3.26,28.22,28.22,0,0,0-7.14-1,21.09,21.09,0,0,0-7.26,1A9.86,9.86,0,0,0,298,356a10.91,10.91,0,0,0-1,7.36,12.32,12.32,0,0,0,3.75,6.63,17.74,17.74,0,0,0,6.8,3.92,19.69,19.69,0,0,0,15.66-1.46,15.18,15.18,0,0,0,3.19-2.5,13.1,13.1,0,0,0,2.29-3.3,14.11,14.11,0,0,0,1.25-7.8,14.65,14.65,0,0,0-2.87-7.24,15.27,15.27,0,0,0-6.1-4.67,16.57,16.57,0,0,0-14.61.66,19.13,19.13,0,0,0-9,10.95,15.84,15.84,0,0,0-.61,6.92,12.26,12.26,0,0,0,1,3.26,12.87,12.87,0,0,0,1.86,2.8,14.76,14.76,0,0,0,5.42,3.68,20.17,20.17,0,0,0,6.26,1.38,19.5,19.5,0,0,0,11.64-3,12,12,0,0,0,5.69-9.2,16.68,16.68,0,0,0-2.65-9.72,20,20,0,0,0-6.42-6.43,17.3,17.3,0,0,0-7.47-2.59,15.36,15.36,0,0,0-6.6.82,15.28,15.28,0,0,0-7.4,5.4,12.68,12.68,0,0,0-1.24,2.08C296.5,354.41,296.37,354.66,296.37,354.66Z" style="fill:#C8FDC7"></path><path d="M323.46,382.27c.09.11-7.84,6.89-17.72,15.15s-18,14.85-18.06,14.74,7.84-6.89,17.72-15.14S323.37,382.16,323.46,382.27Z" style="fill:#263238"></path><path d="M325.19,411.27a9.22,9.22,0,0,1-1.33-.95l-3.52-2.74c-2.95-2.34-7-5.6-11.46-9.22s-8.47-6.92-11.36-9.33l-3.41-2.88a9.08,9.08,0,0,1-1.2-1.1,10,10,0,0,1,1.33.95l3.51,2.74c2.95,2.34,7,5.6,11.46,9.22s8.47,6.92,11.37,9.33l3.4,2.87A11.39,11.39,0,0,1,325.19,411.27Z" style="fill:#263238"></path><path d="M406.94,382.66c.08.11-7.5,5.92-16.95,13s-17.17,12.67-17.26,12.55,7.5-5.92,16.95-13S406.85,382.54,406.94,382.66Z" style="fill:#263238"></path><path d="M409.88,407.26c-.07.12-8.13-4.87-18-11.16s-17.78-11.47-17.71-11.6,8.13,4.88,18,11.16S410,407.14,409.88,407.26Z" style="fill:#263238"></path><path d="M324.76,455.83c-.11-.1,7.77-8.36,17.59-18.43s17.87-18.18,18-18.08-7.77,8.36-17.59,18.44S324.86,455.93,324.76,455.83Z" style="fill:#C8FDC7"></path><path d="M358.07,455.82s-.13-.11-.33-.35l-.84-1c-.78-1-1.82-2.29-3.09-3.87-2.61-3.26-6.31-7.69-10.6-12.4s-8.36-8.8-11.36-11.7L328.29,423l-1-.94a2.19,2.19,0,0,1-.31-.35s.15.08.38.27l1,.87c.89.76,2.15,1.89,3.69,3.31,3.06,2.84,7.18,6.9,11.49,11.62s8,9.2,10.5,12.52c1.28,1.66,2.29,3,3,4l.77,1.1A2,2,0,0,1,358.07,455.82Z" style="fill:#C8FDC7"></path><path d="M276.21,413.76s.32,24.57-5.88,39.28l-37.79-6.44s11.38-23.28,8.28-36.22Z" style="fill:#ebebeb"></path><path d="M276.2,412.84S271.46,443,268.56,452L231,444.54s7.73-29.16,7.63-37.28Z" style="fill:#C8FDC7"></path><path d="M242.44,420.78c0,.14,5.58,1.44,12.53,2.9s12.6,2.53,12.63,2.4-5.58-1.44-12.53-2.9S242.47,420.64,242.44,420.78Z" style="fill:#fff"></path><path d="M241.48,427.17c0,.14,5.58,1.43,12.53,2.9s12.6,2.53,12.63,2.4-5.58-1.44-12.53-2.9S241.51,427,241.48,427.17Z" style="fill:#fff"></path><path d="M247,434.4A8.82,8.82,0,0,0,249,435c1.29.31,3.08.72,5.05,1.14s3.78.76,5.09,1a8.65,8.65,0,0,0,2.14.26,9.65,9.65,0,0,0-2.07-.61c-1.28-.32-3.07-.73-5.05-1.14s-3.78-.77-5.08-1A8.69,8.69,0,0,0,247,434.4Z" style="fill:#fff"></path><path d="M455,344.77s3.87,23.94-.05,39.21l-37.84-.81s7.74-24.38,2.83-36.57Z" style="fill:#ebebeb"></path><path d="M454.83,343.87s-.25,30.11-1.78,39.3l-37.77-1.79s3.31-29.6,2-37.51Z" style="fill:#455a64"></path><path d="M422.64,357.27c0,.14,5.68.26,12.69.27s12.7-.09,12.7-.23-5.68-.26-12.7-.27S422.64,357.13,422.64,357.27Z" style="fill:#fff"></path><path d="M423,363.64c0,.14,5.68.26,12.69.27s12.7-.09,12.7-.23-5.68-.26-12.7-.27S423,363.5,423,363.64Z" style="fill:#fff"></path><path d="M429.77,369.51a8.75,8.75,0,0,0,2.12.19c1.31,0,3.12.07,5.12.08s3.8,0,5.11-.07a8.87,8.87,0,0,0,2.12-.17,8.5,8.5,0,0,0-2.12-.18c-1.31-.05-3.11-.08-5.11-.09s-3.81,0-5.12.07A8.87,8.87,0,0,0,429.77,369.51Z" style="fill:#fff"></path><path d="M463,275.74c-7.06,0-14.17-4.43-17.91-11.4a34,34,0,0,1-3.19-22.6c2.07-10,8.69-18.2,16.87-20.82,6.95-2.23,19.37-1,25.23,8.81a29.59,29.59,0,0,1,4,15.83,3,3,0,1,1-6-.4,24.14,24.14,0,0,0-3.22-12.35c-4.52-7.55-14.43-7.4-18.25-6.18-7,2.24-11.48,9.81-12.83,16.32a27.9,27.9,0,0,0,2.61,18.56c2.95,5.5,8.92,8.92,14.21,8.11a3,3,0,0,1,.91,5.93A16.1,16.1,0,0,1,463,275.74Z" style="fill:#263238"></path><path d="M269.32,275.74c-7.07,0-14.17-4.43-17.91-11.4a34,34,0,0,1-3.2-22.6c1.75-8.44,7.67-18.16,17-20.84a22,22,0,0,1,13.62.69l-2.16,5.6a16.13,16.13,0,0,0-9.8-.53c-6.88,2-11.36,9.62-12.74,16.29a27.9,27.9,0,0,0,2.61,18.56c2.95,5.51,8.93,8.92,14.21,8.11l.91,5.93A16.19,16.19,0,0,1,269.32,275.74Z" style="fill:#263238"></path><polygon points="460.53 245.71 457.77 260.82 498.38 260.82 501.99 245.86 460.53 245.71" style="fill:#C8FDC7"></polygon><path d="M279.61,273.35a6.46,6.46,0,1,1-6.45-6.45A6.46,6.46,0,0,1,279.61,273.35Z" style="fill:#263238"></path><path d="M473.12,273.35a6.46,6.46,0,1,1-6.45-6.45A6.46,6.46,0,0,1,473.12,273.35Z" style="fill:#263238"></path></g><g id="freepik--Plant--inject-8"><rect x="104.25" y="401.27" width="65.3" height="8.97" style="fill:#263238"></rect><path d="M169.66,410.36H104.14v-9.2h65.52Zm-65.3-.23h65.08v-8.75H104.36Z" style="fill:#263238"></path><polygon points="110.31 407.26 119.7 453.63 154.48 453.63 163.57 410.25 110.31 407.26" style="fill:#263238"></polygon><polygon points="110.31 449.24 115.32 456.14 157.59 456.14 163.57 449.24 110.31 449.24" style="fill:#455a64"></polygon><path d="M134.45,408.61c-.13,0-.29-21.48-.37-48s0-48,.1-48,.29,21.48.37,48S134.58,408.61,134.45,408.61Z" style="fill:#263238"></path><path d="M149,354.85a2.72,2.72,0,0,1-.18.5c-.15.37-.35.83-.58,1.39-.13.31-.27.64-.43,1s-.28.79-.43,1.22l-.51,1.4c-.17.5-.31,1-.48,1.6a65.8,65.8,0,0,0-1.83,8,99.34,99.34,0,0,0-1,10,136,136,0,0,0,.52,18.26c.21,2.34.42,4.22.58,5.52.06.61.12,1.11.16,1.5a3.48,3.48,0,0,1,0,.53,2,2,0,0,1-.12-.52c-.07-.39-.15-.88-.25-1.48-.21-1.3-.48-3.18-.73-5.51a120.88,120.88,0,0,1-.65-18.32,91.63,91.63,0,0,1,1-10.05,59.91,59.91,0,0,1,1.94-8c.18-.56.33-1.1.51-1.59l.54-1.4.48-1.21c.16-.37.32-.69.46-1l.67-1.36A1.84,1.84,0,0,1,149,354.85Z" style="fill:#263238"></path><path d="M147.33,337.48a6,6,0,0,1-.21.71c-.17.49-.4,1.16-.68,2l-.5,1.44c-.16.54-.34,1.12-.53,1.74-.38,1.24-.82,2.65-1.21,4.24l-.66,2.49c-.2.87-.4,1.78-.61,2.71-.46,1.87-.79,3.9-1.21,6-.72,4.26-1.35,9-1.79,13.95s-.59,9.74-.65,14.07,0,8.23.22,11.5c.05,1.64.16,3.11.24,4.41s.16,2.42.24,3.33.12,1.58.16,2.11a6.65,6.65,0,0,1,0,.73,3.61,3.61,0,0,1-.12-.72c-.06-.53-.14-1.22-.25-2.1s-.22-2-.32-3.33-.23-2.77-.31-4.41c-.22-3.28-.31-7.18-.32-11.52s.2-9.11.62-14.1,1.09-9.72,1.83-14c.43-2.13.78-4.16,1.25-6,.22-.94.44-1.85.64-2.72l.69-2.48c.41-1.59.88-3,1.29-4.24.2-.62.39-1.19.56-1.73s.37-1,.54-1.43l.76-2A3.24,3.24,0,0,1,147.33,337.48Z" style="fill:#263238"></path><path d="M130.32,412.41a1,1,0,0,1,0-.25c0-.19,0-.43-.06-.74-.05-.68-.11-1.63-.19-2.84-.16-2.51-.38-6.07-.66-10.47-.56-8.83-1.38-21-2.87-34.45-.76-6.72-1.64-13.09-2.56-18.87-.48-2.88-.92-5.62-1.43-8.18s-1-4.93-1.4-7.1-.91-4.11-1.3-5.82-.74-3.19-1-4.39-.51-2.1-.68-2.77c-.06-.29-.12-.53-.16-.72a.68.68,0,0,1,0-.25.91.91,0,0,1,.09.24l.2.71c.19.66.44,1.58.77,2.75s.72,2.65,1.13,4.37.91,3.65,1.36,5.82,1,4.53,1.46,7.09,1,5.3,1.48,8.19c.94,5.78,1.83,12.16,2.59,18.87,1.49,13.44,2.26,25.65,2.74,34.49.24,4.43.41,8,.51,10.48,0,1.21.08,2.16.1,2.85,0,.3,0,.55,0,.74A.93.93,0,0,1,130.32,412.41Z" style="fill:#263238"></path><path d="M133.92,323c-.29-3-3.36-5.34-6.42-5.37a10.09,10.09,0,0,0-7.77,4.22,24.44,24.44,0,0,0-3.75,8.31c-2.06,7.17-3.18,14.7-2.3,22.11s3.88,14.7,9.2,19.93c.86.86,2,1.71,3.17,1.45a3.85,3.85,0,0,0,1.67-1A49.5,49.5,0,0,0,143.78,335c-.08-2.81-.45-5.75-2-8.09s-5.2-4.84-7.85-3.9" style="fill:#C8FDC7"></path><path d="M111.09,298.6l-4.3,7.8c-.1.18-.23.39-.44.4s-.4-.19-.52-.38L94.45,289l2.62-1.49Z" style="fill:#C8FDC7"></path><g style="opacity:0.2"><path d="M111.09,298.6l-4.3,7.8c-.1.18-.23.39-.44.4s-.4-.19-.52-.38L94.45,289l2.62-1.49Z"></path></g><path d="M134.18,312.65,95.36,289.74a1.8,1.8,0,0,1-1-.95c-.15-.57.28-1.13.69-1.56a26.8,26.8,0,0,1,20.75-8.15,23.71,23.71,0,0,1,18.76,11.67c3.74,6.69,3.87,15.55-.43,21.9" style="fill:#C8FDC7"></path><path d="M101,282.43a1.69,1.69,0,0,1,.51-.06c.33,0,.83-.08,1.47-.07a29.57,29.57,0,0,1,5.38.42,32.24,32.24,0,0,1,7.68,2.33,31.48,31.48,0,0,1,17.45,20.41,28.57,28.57,0,0,1,1,5.32c.08.63.06,1.13.08,1.47a2.52,2.52,0,0,1,0,.51s-.09-.7-.25-2a33.26,33.26,0,0,0-1.09-5.25,31.71,31.71,0,0,0-24.87-22.5,33,33,0,0,0-5.33-.57C101.66,282.45,101,282.47,101,282.43Z" style="fill:#263238"></path><path d="M128.92,296.84a8.54,8.54,0,0,1-2,.89c-1.24.49-3,1.11-4.9,1.73s-3.7,1.1-5,1.42a9.82,9.82,0,0,1-2.12.4,10.16,10.16,0,0,1,2-.72l4.94-1.55,4.93-1.59A11.24,11.24,0,0,1,128.92,296.84Z" style="fill:#263238"></path><path d="M122.81,280.42a16.2,16.2,0,0,1,.46,4.33,16.37,16.37,0,0,1-.24,4.35,27.56,27.56,0,0,1-.22-4.34A27.51,27.51,0,0,1,122.81,280.42Z" style="fill:#263238"></path><path d="M95,289.31a16.73,16.73,0,0,1,2.82-1c1.76-.55,4.22-1.24,7-1.9s5.24-1.16,7-1.48a17.37,17.37,0,0,1,3-.4,22.1,22.1,0,0,1-2.9.72c-1.8.4-4.28,1-7,1.62s-5.19,1.29-7,1.75A22.62,22.62,0,0,1,95,289.31Z" style="fill:#263238"></path><path d="M116.28,315.78c-3.34-2.53-6.87-3-11.06-2.87A33.69,33.69,0,0,0,93.12,316c-6.55,2.86-12.7,7.09-16.61,13.07s-5.28,13.9-2.35,20.42a2.93,2.93,0,0,0,1.33,1.61,3.21,3.21,0,0,0,2.19-.17c7.45-2.43,14.94-4.88,21.79-8.68s13.08-9.09,16.75-16A13.9,13.9,0,0,0,118,321a6.63,6.63,0,0,0-1.71-5.19" style="fill:#C8FDC7"></path><path d="M116.34,315a2.3,2.3,0,0,1-.53.22l-1.56.54-1.13.37c-.41.15-.85.33-1.32.52-.94.38-2,.76-3.19,1.32l-1.82.83c-.64.29-1.27.65-1.94,1-1.35.66-2.71,1.51-4.17,2.37A66.13,66.13,0,0,0,84.26,336.6c-1,1.33-2.05,2.58-2.88,3.84-.43.62-.86,1.2-1.24,1.79l-1,1.7c-.7,1.07-1.22,2.11-1.72,3-.24.44-.48.85-.68,1.24s-.36.74-.51,1.07l-.74,1.48a2.07,2.07,0,0,1-.28.5,2.92,2.92,0,0,1,.2-.54l.65-1.52c.15-.33.31-.69.48-1.09s.42-.81.65-1.26c.48-.91,1-2,1.66-3.05.34-.55.68-1.13,1-1.73s.8-1.18,1.22-1.81c.82-1.28,1.83-2.54,2.86-3.89a69.68,69.68,0,0,1,7.64-8,68.46,68.46,0,0,1,8.9-6.55c1.47-.86,2.85-1.7,4.21-2.35.68-.34,1.32-.69,2-1l1.85-.8c1.17-.55,2.27-.91,3.23-1.27.48-.17.92-.34,1.34-.48l1.14-.34,1.59-.45A3.51,3.51,0,0,1,116.34,315Z" style="fill:#263238"></path><path d="M90.26,329.12a80.53,80.53,0,0,1-8.12,2.61,74.35,74.35,0,0,1-8.26,2.17A80.53,80.53,0,0,1,82,331.29,77.11,77.11,0,0,1,90.26,329.12Z" style="fill:#263238"></path><path d="M89.92,347a14,14,0,0,1-.18-2.53c0-1.56,0-3.73,0-6.11s.2-4.55.33-6.11a12.43,12.43,0,0,1,.32-2.52,16,16,0,0,1,0,2.54c-.06,1.71-.12,3.79-.19,6.1s-.11,4.39-.16,6.1A13.84,13.84,0,0,1,89.92,347Z" style="fill:#263238"></path><path d="M105.28,339.22c-.13,0-.54-4.39-.91-9.82s-.58-9.84-.45-9.84.53,4.38.91,9.81S105.41,339.21,105.28,339.22Z" style="fill:#263238"></path><path d="M86.17,319.13a13.72,13.72,0,0,1,2.6-.08c1.6,0,3.82.06,6.27.14s4.66.18,6.26.27a15.65,15.65,0,0,1,2.59.25,13.72,13.72,0,0,1-2.6.08c-1.6,0-3.82-.05-6.27-.14s-4.66-.18-6.27-.27A15.24,15.24,0,0,1,86.17,319.13Z" style="fill:#263238"></path><path d="M124.55,374.28a2,2,0,0,1-.06-.54c0-.39,0-.9-.07-1.52-.06-1.33-.07-3.24,0-5.62s.2-5.19.48-8.31.74-6.55,1.37-10.12,1.41-6.92,2.2-10,1.65-5.73,2.43-8,1.44-4,2-5.26c.24-.58.43-1,.59-1.41a2.81,2.81,0,0,1,.23-.48,1.64,1.64,0,0,1-.15.51L133,325c-.46,1.24-1.09,3-1.82,5.3s-1.53,5-2.32,8-1.53,6.38-2.17,9.94-1.07,7-1.39,10.07-.5,5.92-.58,8.28-.13,4.28-.13,5.61c0,.62,0,1.12,0,1.52A4,4,0,0,1,124.55,374.28Z" style="fill:#263238"></path><path d="M126.59,347.79a10.68,10.68,0,0,1-1.55,1.7c-1,1-2.43,2.34-4.05,3.77s-3.15,2.66-4.28,3.53a10.71,10.71,0,0,1-1.88,1.31,12.11,12.11,0,0,1,1.68-1.57l4.17-3.62,4.14-3.66A12.05,12.05,0,0,1,126.59,347.79Z" style="fill:#263238"></path><path d="M138.88,357.68a18.15,18.15,0,0,1-1.65-2.28l-3.83-5.6-3.92-5.54a18.72,18.72,0,0,1-1.57-2.34,14.77,14.77,0,0,1,1.83,2.14c1.08,1.37,2.52,3.29,4,5.48s2.82,4.2,3.73,5.68A15.14,15.14,0,0,1,138.88,357.68Z" style="fill:#263238"></path><path d="M132.44,326.55c.07.11-4,2.86-9.11,6.14s-9.3,5.86-9.37,5.75,4-2.86,9.12-6.14S132.38,326.45,132.44,326.55Z" style="fill:#263238"></path><path d="M144,339a80.29,80.29,0,0,1-6.17-5.71,75.82,75.82,0,0,1-5.85-6,76.91,76.91,0,0,1,6.18,5.71A72.65,72.65,0,0,1,144,339Z" style="fill:#263238"></path><path d="M146.85,338.73l3.5-.29a17.3,17.3,0,0,0,7.08-2.17,30,30,0,0,1,3.3-1.66c4.33-1.73,9.17-1.42,13.83-1.66a57.21,57.21,0,0,0,22-5.62,2.24,2.24,0,0,0,1-.87c.72-1.31-.62-2.48-1.77-3.19-5.91-3.64-11.92-7.32-18.61-9.13s-14.3-1.5-20,2.43c-6.7,4.62-9.15,14.1-10.28,22.16" style="fill:#C8FDC7"></path><path d="M197.59,326a6.07,6.07,0,0,1-.59-.28l-1.66-.87c-1.44-.76-3.51-1.88-6.14-3.13a56.15,56.15,0,0,0-9.49-3.66,31.25,31.25,0,0,0-12.31-1,21,21,0,0,0-11.22,4.82,24.94,24.94,0,0,0-5.84,8.2c-1.23,2.63-2,4.87-2.54,6.39l-.63,1.77a3.74,3.74,0,0,1-.24.61,3.33,3.33,0,0,1,.15-.64c.14-.45.32-1.05.54-1.79A58.51,58.51,0,0,1,150,330a24.75,24.75,0,0,1,5.86-8.39,21.19,21.19,0,0,1,11.44-5,31.47,31.47,0,0,1,12.48,1,55.75,55.75,0,0,1,9.53,3.78c2.61,1.3,4.66,2.46,6.08,3.27l1.62.95A2.78,2.78,0,0,1,197.59,326Z" style="fill:#263238"></path><path d="M189.18,330.55c-.07.1-4.66-2.86-10.24-6.62s-10.05-6.9-10-7,4.65,2.86,10.23,6.62S189.25,330.44,189.18,330.55Z" style="fill:#263238"></path><path d="M184.78,316.48a17.24,17.24,0,0,1-7.23.67,20.38,20.38,0,0,1,3.61-.42A21,21,0,0,1,184.78,316.48Z" style="fill:#263238"></path><path d="M164.23,312.8a25.26,25.26,0,0,1-3.41,5.78,12.07,12.07,0,0,1,1.5-3A11.91,11.91,0,0,1,164.23,312.8Z" style="fill:#263238"></path><path d="M168.33,333.25a12,12,0,0,1-2.2-1.2c-1.33-.8-3.12-2-5-3.37s-3.59-2.7-4.81-3.66a13.37,13.37,0,0,1-1.9-1.63,12.83,12.83,0,0,1,2.1,1.37l4.89,3.55c1.9,1.38,3.65,2.59,4.93,3.47A14.17,14.17,0,0,1,168.33,333.25Z" style="fill:#263238"></path><path d="M152,353.62c-3.34-.89-7.33,2.36-8,5.75s.59,6.85,2.07,10a51,51,0,0,0,13.82,18.09A34.2,34.2,0,0,0,181,395.21c-1.41-6.56.37-13.42-.41-20.09a26.14,26.14,0,0,0-23.15-22.91c-2.13-.23-4.6-.56-5.45,1.41" style="fill:#C8FDC7"></path><path d="M181,395.21a2.41,2.41,0,0,1-.48-.22,9.65,9.65,0,0,1-1.25-.84,13.08,13.08,0,0,1-3.3-4.41c-.53-1-1.13-2.16-1.71-3.41s-1.16-2.57-1.8-4a36,36,0,0,0-2.21-4.25,32.7,32.7,0,0,0-3-4.14c-2.28-2.68-4.74-5-6.87-7.23a47.14,47.14,0,0,1-5.24-6.29,23.1,23.1,0,0,1-2.56-4.89c-.21-.61-.37-1.1-.45-1.43a2,2,0,0,1-.1-.51s.23.68.72,1.88a25.47,25.47,0,0,0,2.66,4.77,50.3,50.3,0,0,0,5.28,6.17c2.14,2.2,4.61,4.52,6.92,7.23a33.06,33.06,0,0,1,3.07,4.2,38.31,38.31,0,0,1,2.21,4.31l1.76,4c.56,1.24,1.14,2.38,1.66,3.41a13.5,13.5,0,0,0,3.12,4.43C180.39,394.85,181.05,395.17,181,395.21Z" style="fill:#263238"></path><path d="M163.73,389.76a10.3,10.3,0,0,1,.31-2.25c.26-1.38.69-3.27,1.27-5.33s1.2-3.89,1.7-5.2a9.48,9.48,0,0,1,.91-2.08,12.76,12.76,0,0,1-.6,2.18c-.42,1.34-1,3.18-1.56,5.23s-1,3.91-1.4,5.27A11.53,11.53,0,0,1,163.73,389.76Z" style="fill:#263238"></path><path d="M180.39,373.65a14.58,14.58,0,0,1-2.36-.55c-1.44-.37-3.43-.89-5.64-1.39s-4.23-.88-5.69-1.16a13.53,13.53,0,0,1-2.36-.52,11.2,11.2,0,0,1,2.41.2c1.48.19,3.52.53,5.74,1s4.21,1.07,5.63,1.53A11.76,11.76,0,0,1,180.39,373.65Z" style="fill:#263238"></path><path d="M151.33,378.33a14,14,0,0,1,.36-2.61c.3-1.59.76-3.79,1.39-6.18s1.29-4.54,1.81-6.08a14.26,14.26,0,0,1,1-2.45,16.52,16.52,0,0,1-.64,2.55c-.44,1.56-1.06,3.71-1.68,6.09s-1.14,4.57-1.51,6.14A15.5,15.5,0,0,1,151.33,378.33Z" style="fill:#263238"></path><path d="M172.72,359.61c0,.12-4.19-.21-9.32-.76s-9.29-1.09-9.27-1.21a90.69,90.69,0,0,1,9.32.75A91.55,91.55,0,0,1,172.72,359.61Z" style="fill:#263238"></path><path d="M169.66,410.21c0,.13-14.67.23-32.76.23s-32.76-.1-32.76-.23,14.67-.23,32.76-.23S169.66,410.08,169.66,410.21Z" style="fill:#455a64"></path><path d="M159.46,429.08c0,.13-9.89.24-22.08.24s-22.07-.11-22.07-.24,9.88-.23,22.07-.23S159.46,429,159.46,429.08Z" style="fill:#455a64"></path><path d="M159.84,431.78c0,.13-9.88.23-22.07.23s-22.07-.1-22.07-.23,9.88-.23,22.07-.23S159.84,431.65,159.84,431.78Z" style="fill:#455a64"></path><path d="M159.84,426.86c0,.13-10.22.23-22.83.23s-22.83-.1-22.83-.23,10.22-.23,22.83-.23S159.84,426.73,159.84,426.86Z" style="fill:#455a64"></path></g></svg>