<?xml version="1.0" encoding="utf-8"?>
<!-- Generator: Adobe Illustrator 27.5.0, SVG Export Plug-In . SVG Version: 6.00 Build 0)  -->
<svg version="1.1" id="Слой_1" xmlns="http://www.w3.org/2000/svg" xmlns:xlink="http://www.w3.org/1999/xlink" x="0px" y="0px"
	 viewBox="0 0 3500 2000" style="enable-background:new 0 0 3500 2000;" xml:space="preserve">
<rect style="fill:#FFFFFF;" width="3500" height="2000"/>
<g>
	<path style="fill:#E7F3FE;" d="M404.635,1717.271c0,0-350.382-278.543-157.46-664.278
		c192.922-385.734-75.999-519.304,111.076-598.756s290.545,93.605,808.46-50.154c517.916-143.759,1558.429-382.565,1796.094-204.777
		c237.664,177.789-442.067,666.177-120.91,662.484c649.873-7.474,527.379,660.77,213.038,876.399
		C2895.542,1847.527,404.635,1717.271,404.635,1717.271z"/>
	<path style="fill:#9BD6E8;" d="M3243.686,1752.519c-479.847-195.16-2763.036-109.967-2911.167-52.056
		c-148.131,57.912,28.848,96.891,410.09,75.452s871.77,2.385,1293.096,13.862
		C2457.032,1801.255,3554.759,1879.037,3243.686,1752.519z"/>
	<g>
		<g>
			<g>
				<path style="fill:#9EC8FF;" d="M2635.499,635.042c1.405-12.574,2.152-25.346,2.152-38.294c0-6.832-0.226-13.611-0.621-20.345
					l-63.276-20.473c-3.896-26.678-11.546-52.133-22.404-75.815l41.956-51.63c-9.704-17.077-20.831-33.24-33.235-48.314
					l-63.285,20.649c-18.445-18.845-39.523-35.095-62.649-48.155l3.601-66.49c-17.661-8.039-36.127-14.618-55.244-19.579
					l-39.078,53.927c-15.231-2.563-30.873-3.918-46.834-3.918c-10.881,0-21.609,0.642-32.166,1.849l-36.18-55.922
					c-19.385,3.943-38.171,9.531-56.208,16.61l0.082,66.588c-23.826,11.837-45.729,26.961-65.11,44.788l-62.086-23.956
					c-13.193,14.416-25.171,29.961-35.755,46.488l39.181,53.787c-12.128,23.126-21.125,48.15-26.414,74.518l-64.263,17.1
					c-1.405,12.574-2.152,25.346-2.152,38.294c0,6.833,0.225,13.612,0.62,20.345l63.277,20.473
					c3.895,26.678,11.545,52.134,22.405,75.816l-41.958,51.629c9.705,17.077,20.832,33.24,33.236,48.314l63.285-20.649
					c18.445,18.845,39.524,35.095,62.648,48.155l-3.6,66.49c17.66,8.04,36.126,14.618,55.244,19.579l39.078-53.927
					c15.231,2.564,30.873,3.919,46.834,3.919c10.881,0,21.609-0.642,32.166-1.849l36.179,55.923
					c19.386-3.943,38.171-9.531,56.209-16.611l-0.083-66.588c23.826-11.837,45.729-26.96,65.111-44.787l62.086,23.956
					c13.192-14.416,25.17-29.961,35.754-46.488l-39.18-53.787c12.127-23.127,21.125-48.15,26.414-74.518L2635.499,635.042z
					 M2296.58,730.522c-73.882,0-133.775-59.893-133.775-133.775c0-73.882,59.894-133.775,133.775-133.775
					s133.775,59.893,133.775,133.775C2430.355,670.629,2370.462,730.522,2296.58,730.522z"/>
				<g>
					<path style="fill:#FFFFFF;" d="M2479.036,749.318c-1.127,0-2.26-0.379-3.194-1.156c-2.123-1.766-2.413-4.918-0.647-7.042
						c33.622-40.428,52.138-91.701,52.138-144.374c0-25.223-4.125-49.99-12.262-73.613c-0.899-2.611,0.488-5.457,3.1-6.356
						c2.611-0.898,5.455,0.488,6.355,3.099c8.498,24.674,12.807,50.536,12.807,76.87c0,55.004-19.337,108.548-54.448,150.769
						C2481.895,748.705,2480.471,749.318,2479.036,749.318z"/>
				</g>
				<g>
					<path style="fill:#FFFFFF;" d="M2459.669,433.576c-1.229,0-2.461-0.451-3.427-1.36c-22.593-21.272-48.763-37.396-77.782-47.925
						c-2.596-0.942-3.937-3.81-2.995-6.405c0.941-2.597,3.813-3.937,6.405-2.995c30.308,10.996,57.637,27.833,81.228,50.044
						c2.011,1.893,2.105,5.058,0.213,7.068C2462.326,433.048,2460.999,433.576,2459.669,433.576z"/>
				</g>
				<g>
					<path style="fill:#FFFFFF;" d="M2244.69,377.821c-2.235,0-4.271-1.51-4.844-3.777c-0.676-2.677,0.946-5.396,3.624-6.072
						c18.832-4.753,38.319-7.164,57.922-7.164c2.762,0,5,2.239,5,5s-2.238,5-5,5c-18.778,0-37.442,2.308-55.475,6.86
						C2245.508,377.772,2245.096,377.821,2244.69,377.821z"/>
				</g>
			</g>
			<g>
				<path style="fill:#9EC8FF;" d="M3084.592,722.235c0.974-8.709,1.491-17.556,1.491-26.525c0-4.732-0.155-9.428-0.43-14.091
					l-43.828-14.181c-2.698-18.478-7.997-36.11-15.519-52.513l29.061-35.761c-6.722-11.828-14.428-23.023-23.02-33.464
					l-43.835,14.303c-12.775-13.053-27.376-24.309-43.393-33.354l2.493-46.054c-12.232-5.568-25.022-10.125-38.264-13.561
					l-27.067,37.352c-10.55-1.776-21.384-2.714-32.439-2.714c-7.536,0-14.968,0.445-22.279,1.281l-25.06-38.734
					c-13.427,2.731-26.438,6.602-38.933,11.505l0.058,46.122c-16.504,8.199-31.674,18.674-45.099,31.021l-43.003-16.593
					c-9.139,9.985-17.435,20.753-24.766,32.199l27.139,37.255c-8.4,16.018-14.633,33.351-18.296,51.614l-44.511,11.845
					c-0.974,8.708-1.491,17.555-1.491,26.524c0,4.733,0.155,9.428,0.431,14.092l43.828,14.18
					c2.697,18.478,7.996,36.11,15.518,52.513l-29.061,35.761c6.722,11.828,14.428,23.023,23.021,33.464l43.834-14.303
					c12.775,13.053,27.376,24.308,43.393,33.354l-2.493,46.054c12.232,5.568,25.021,10.125,38.264,13.562l27.067-37.352
					c10.55,1.776,21.385,2.714,32.439,2.714c7.536,0,14.968-0.445,22.279-1.281l25.06,38.734
					c13.427-2.731,26.438-6.602,38.933-11.505l-0.058-46.122c16.503-8.199,31.674-18.674,45.099-31.022l43.003,16.593
					c9.139-9.985,17.435-20.752,24.766-32.199l-27.139-37.255c8.4-16.018,14.633-33.35,18.296-51.614L3084.592,722.235z
					 M2849.843,788.369c-51.174,0-92.658-41.484-92.658-92.658c0-51.174,41.484-92.658,92.658-92.658s92.658,41.484,92.658,92.658
					C2942.501,746.885,2901.017,788.369,2849.843,788.369z"/>
				<g>
					<path style="fill:#FFFFFF;" d="M2976.219,802.925c-1.127,0-2.26-0.379-3.194-1.155c-2.123-1.767-2.413-4.919-0.647-7.042
						c23.059-27.725,35.758-62.891,35.758-99.017c0-17.3-2.829-34.286-8.41-50.487c-0.899-2.611,0.488-5.457,3.1-6.356
						c2.612-0.899,5.455,0.488,6.355,3.099c5.942,17.252,8.955,35.333,8.955,53.744c0,38.457-13.52,75.893-38.068,105.411
						C2979.077,802.31,2977.653,802.925,2976.219,802.925z"/>
				</g>
				<g>
					<path style="fill:#FFFFFF;" d="M2962.805,584.229c-1.229,0-2.461-0.451-3.427-1.359
						c-15.495-14.589-33.443-25.648-53.346-32.869c-2.596-0.942-3.937-3.81-2.995-6.406c0.941-2.596,3.812-3.934,6.405-2.995
						c21.19,7.688,40.298,19.46,56.791,34.988c2.011,1.893,2.105,5.058,0.213,7.068
						C2965.462,583.701,2964.135,584.229,2962.805,584.229z"/>
				</g>
				<g>
					<path style="fill:#FFFFFF;" d="M2813.901,545.61c-2.236,0-4.271-1.51-4.844-3.777c-0.676-2.677,0.946-5.396,3.624-6.072
						c13.165-3.323,26.79-5.008,40.495-5.008c2.762,0,5,2.239,5,5c0,2.761-2.238,5-5,5c-12.881,0-25.682,1.582-38.048,4.704
						C2814.719,545.561,2814.307,545.61,2813.901,545.61z"/>
				</g>
			</g>
		</g>
		<g>
			<defs>
				<path id="SVGID_1_" d="M785.253,277.129c-142.834,0-258.624,115.79-258.624,258.625c0,142.834,115.789,258.624,258.624,258.624
					c142.834,0,258.624-115.79,258.624-258.624C1043.877,392.919,928.087,277.129,785.253,277.129z M785.253,672.758
					c-75.666,0-137.005-61.339-137.005-137.005c0-75.666,61.339-137.005,137.005-137.005c75.666,0,137.005,61.339,137.005,137.005
					C922.258,611.419,860.919,672.758,785.253,672.758z"/>
			</defs>
			<clipPath id="SVGID_00000026163354997930565000000005697644760589499816_">
				<use xlink:href="#SVGID_1_"  style="overflow:visible;"/>
			</clipPath>
			<path style="clip-path:url(#SVGID_00000026163354997930565000000005697644760589499816_);fill:#A2DFF2;" d="M1018.999,678.69
				L785.253,535.753l-42.281,270.709C852.78,823.769,961.685,772.321,1018.999,678.69z"/>
			<path style="clip-path:url(#SVGID_00000026163354997930565000000005697644760589499816_);fill:#9CD499;" d="M1019.245,678.369
				c0.63-1.032,1.454-2.45,1.421-2.396c49.368-82.696,51.362-185.405,6.067-269.713c-82.718,43.337-33.459,17.01-241.481,129.494
				C1019.384,678.926,983.023,656.849,1019.245,678.369z"/>
			<path style="clip-path:url(#SVGID_00000026163354997930565000000005697644760589499816_);fill:#9EC8FF;" d="M528.304,441.074
				l256.949,94.679l241.04-130.338C913.544,196.904,610.054,221.91,528.304,441.074z"/>
			<path style="clip-path:url(#SVGID_00000026163354997930565000000005697644760589499816_);fill:#F39892;" d="M742.972,806.463
				l42.281-270.709l-256.949-94.679C467.202,604.885,575.652,780.085,742.972,806.463z"/>
			<path style="clip-path:url(#SVGID_00000026163354997930565000000005697644760589499816_);fill:#E7F3FE;" d="M1031.371,675.599
				c46.45-81.647,49.096-182.464,7.094-266.43l0.15-0.081l-4.324-7.998c-0.088-0.162-0.183-0.318-0.271-0.48l-3.536-6.58
				l-0.135,0.071c-27.275-47.39-66.166-85.181-112.94-109.55c-45.806-23.865-97.88-34.545-150.615-30.88
				c-109.868,7.63-202.433,74.701-243.691,175.798l-0.151-0.056l-3.164,8.484l-3.19,8.552l0.151,0.056
				c-25.831,76.728-17.271,160.402,23.958,230.978c41.919,71.756,111.503,121.066,191.906,136.391l-0.024,0.157l8.958,1.412
				c0.01,0.002,9.003,1.419,9.003,1.419l0.024-0.157c11.63,1.452,23.281,2.186,34.905,2.186c40.882,0,81.375-8.938,119.028-26.47
				c48.208-22.444,88.706-57.534,117.637-101.755l0.182,0.108l1.78-2.915l0.045,0.023l2.854-4.776
				c0.444-0.728,0.978-1.634,1.28-2.15l0.191-0.32c0.049-0.082,0.093-0.165,0.142-0.247l2.882-4.709L1031.371,675.599z
				 M1003.961,428.437c5.385-2.816,11.555-6.042,18.884-9.879c38.528,78.061,36.007,171.461-6.823,247.319
				c-0.004,0.007-1.733-1.018-1.733-1.018c-9.55-5.657-13.7-8.115-32.732-19.722l-178.085-108.9l147.833-79.938
				C973.014,444.617,981.913,439.965,1003.961,428.437z M540.153,435.751c38.74-94.299,125.261-156.814,227.9-163.942
				c101.411-7.05,194.753,42.59,245.788,130.004l-71.189,38.494c-14.697,7.908-35.244,19.026-69.641,37.638
				c-22.038,11.924-49.768,26.928-85.284,46.135l-2.195,1.187l-7.159-4.378l-0.39,2.497l-112.576-41.481L540.153,435.751z
				 M556.406,668.312c-38.478-65.866-46.556-143.91-22.603-215.522l169.256,62.366l72.061,26.553L735.418,795.91
				C660.436,781.44,595.556,735.326,556.406,668.312z M753.379,798.744l38.753-248.125L892.984,612.3
				c40.661,24.872,63.921,39.099,78.565,48.031l34.816,21.29C950.829,765.854,853.245,811.024,753.379,798.744z"/>
		</g>
		<g>
			<circle style="fill:#2E5B9A;" cx="1501.676" cy="962.552" r="742.003"/>
			<circle style="fill:#232E4F;" cx="1500.704" cy="970.329" r="599.35"/>
			<circle style="fill:#FFFFFF;" cx="1501.676" cy="952.831" r="569.232"/>
			<g>
				<path style="fill:#3E6BAB;" d="M1501.695,972.834c-6.931,0-13.668-3.605-17.365-10.048c-5.498-9.58-2.188-21.804,7.392-27.302
					l215.614-123.744c9.578-5.498,21.804-2.189,27.302,7.392c5.498,9.58,2.188,21.804-7.392,27.302l-215.614,123.744
					C1508.494,971.979,1505.071,972.834,1501.695,972.834z"/>
			</g>
			<g>
				<path style="fill:#F37168;" d="M1501.69,967.834c-5.219,0-10.289-2.728-13.053-7.588L1323.187,669.3
					c-4.095-7.202-1.577-16.359,5.624-20.454c7.202-4.095,16.359-1.577,20.454,5.624l165.451,290.946
					c4.095,7.201,1.577,16.359-5.624,20.454C1506.751,967.201,1504.203,967.834,1501.69,967.834z"/>
			</g>
			<g>
				<path style="fill:#212D51;" d="M1529.201,952.831c0,15.201-12.323,27.524-27.525,27.524s-27.525-12.323-27.525-27.524
					c0-15.202,12.323-27.525,27.525-27.525S1529.201,937.629,1529.201,952.831z"/>
				<g>
					<path style="fill:#212D51;" d="M1472.409,567.278h-25.954V481.25h-25.03v-18.33l50.984-7.856V567.278z"/>
					<path style="fill:#212D51;" d="M1587.011,567.278h-78.48v-16.944l36.044-37.892c4.569-5.237,7.933-9.909,10.089-14.017
						c2.157-4.107,3.235-7.675,3.235-10.706c0-4.313-1.092-7.752-3.273-10.32c-2.183-2.567-5.456-3.851-9.819-3.851
						c-3.903,0-6.971,1.656-9.204,4.967c-2.233,3.312-3.35,7.536-3.35,12.669h-25.416l-0.154-0.462
						c-0.257-10.371,3.132-19.164,10.166-26.378c7.034-7.213,16.354-10.821,27.958-10.821c12.322,0,21.937,3.03,28.843,9.088
						c6.904,6.059,10.358,14.352,10.358,24.876c0,7.085-1.836,13.351-5.507,18.792c-3.671,5.443-10.436,13.53-20.294,24.26
						l-15.172,16.251l0.23,0.462h43.746V567.278z"/>
				</g>
				<g>
					<path style="fill:#212D51;" d="M1508.992,1316.818c4.416,0,8.344,0.373,11.784,1.116c3.439,0.745,7.239,1.939,11.398,3.582
						l-4.313,18.946c-3.594-1.079-6.738-1.888-9.435-2.427c-2.695-0.539-5.789-0.809-9.28-0.809c-6.161,0-11.104,2.17-14.825,6.508
						c-3.724,4.34-5.507,10.667-5.354,18.985l0.231,0.385c2.259-2.566,5.263-4.569,9.011-6.008c3.748-1.437,8.01-2.156,12.785-2.156
						c10.012,0,17.803,3.608,23.375,10.821c5.57,7.214,8.355,16.443,8.355,27.688c0,11.091-3.685,20.32-11.052,27.688
						c-7.368,7.368-16.777,11.052-28.227,11.052c-12.272,0-22.181-4.03-29.729-12.092c-7.548-8.06-11.321-19.1-11.321-33.117
						v-22.565c0-14.788,4.352-26.417,13.055-34.889C1484.154,1321.054,1495.334,1316.818,1508.992,1316.818z M1503.832,1374.966
						c-3.594,0-6.688,0.486-9.28,1.457c-2.593,0.973-4.634,2.328-6.123,4.065v6.596c0,8.08,1.321,14.281,3.967,18.601
						c2.644,4.32,6.327,6.48,11.052,6.48c3.901,0,7.086-1.84,9.55-5.522c2.465-3.681,3.697-8.053,3.697-13.115
						c0-5.676-1.194-10.188-3.581-13.537C1510.726,1376.642,1507.632,1374.966,1503.832,1374.966z"/>
				</g>
				<g>
					<path style="fill:#212D51;" d="M1044.321,980.518c5.186,0,9.474-1.86,12.862-5.584c3.389-3.722,5.083-8.868,5.083-15.441
						v-4.929c-2.517,3.08-5.442,5.404-8.78,6.97c-3.338,1.566-6.881,2.349-10.628,2.349c-10.218,0-18.215-3.452-23.991-10.358
						c-5.775-6.905-8.664-16.34-8.664-28.304c0-11.142,3.645-20.603,10.936-28.381c7.29-7.778,16.687-11.668,28.189-11.668
						c11.295,0,20.602,4.082,27.918,12.245c7.317,8.164,10.976,19.384,10.976,33.657v26.648c0,12.938-4.159,23.311-12.477,31.115
						c-8.318,7.805-18.793,11.706-31.424,11.706c-3.851,0-7.843-0.424-11.976-1.271c-4.134-0.848-8.075-2.041-11.822-3.581
						l2.695-18.562c3.594,1.182,6.996,2.041,10.205,2.58C1036.632,980.248,1040.265,980.518,1044.321,980.518z M1048.558,945.167
						c2.927,0,5.558-0.513,7.895-1.54c2.336-1.026,4.274-2.439,5.814-4.236v-11.553c0-7.342-1.22-12.95-3.658-16.828
						c-2.439-3.876-5.559-5.815-9.357-5.815c-4.005,0-7.176,2.028-9.512,6.084c-2.337,4.057-3.504,8.703-3.504,13.94
						c0,6.161,1.026,11.026,3.08,14.595C1041.368,943.384,1044.449,945.167,1048.558,945.167z"/>
				</g>
				<g>
					<path style="fill:#212D51;" d="M1938.618,931.997h12.245c4.672,0,8.267-1.258,10.782-3.773
						c2.516-2.516,3.774-6.008,3.774-10.475c0-3.543-1.13-6.521-3.389-8.934c-2.261-2.413-5.546-3.62-9.858-3.62
						c-3.389,0-6.367,0.976-8.935,2.927c-2.567,1.951-3.851,4.467-3.851,7.548h-25.262l-0.153-0.463
						c-0.309-8.934,3.208-16.173,10.551-21.719c7.342-5.545,16.251-8.317,26.725-8.317c12.169,0,21.898,2.786,29.189,8.356
						c7.291,5.571,10.937,13.466,10.937,23.683c0,5.083-1.578,9.768-4.736,14.056c-3.157,4.287-7.382,7.638-12.669,10.051
						c6.007,2.208,10.705,5.559,14.094,10.051c3.389,4.493,5.083,9.871,5.083,16.135c0,10.269-3.928,18.343-11.783,24.222
						c-7.855,5.88-17.895,8.818-30.114,8.818c-10.525,0-19.729-2.759-27.61-8.279c-7.882-5.519-11.694-13.517-11.437-23.99
						l0.153-0.463h25.416c0,3.595,1.398,6.611,4.197,9.05c2.798,2.439,6.2,3.658,10.205,3.658c4.569,0,8.214-1.282,10.937-3.851
						c2.721-2.567,4.082-5.802,4.082-9.704c0-5.441-1.425-9.408-4.274-11.899c-2.85-2.489-6.868-3.735-12.054-3.735h-12.245V931.997
						z"/>
				</g>
			</g>
		</g>
		<g>
			<g>
				<g>
					<path style="fill:#9BD6E8;" d="M2775.965,1113.128c-46.25,0-83.877-37.628-83.877-83.878s37.627-83.878,83.877-83.878
						s83.878,37.628,83.878,83.878S2822.215,1113.128,2775.965,1113.128z M2775.965,965.372c-35.222,0-63.877,28.655-63.877,63.878
						c0,35.223,28.655,63.878,63.877,63.878c35.223,0,63.878-28.655,63.878-63.878
						C2839.843,994.027,2811.188,965.372,2775.965,965.372z"/>
				</g>
				<g>
					<path style="fill:#9BD6E8;" d="M2670.759,1113.128c-46.25,0-83.878-37.628-83.878-83.878s37.628-83.878,83.878-83.878
						s83.877,37.628,83.877,83.878S2717.009,1113.128,2670.759,1113.128z M2670.759,965.372c-35.223,0-63.878,28.655-63.878,63.878
						c0,35.223,28.655,63.878,63.878,63.878c35.222,0,63.877-28.655,63.877-63.878
						C2734.636,994.027,2705.98,965.372,2670.759,965.372z"/>
				</g>
				<g>
					<path style="fill:#9BD6E8;" d="M2556.646,1113.128c-46.25,0-83.877-37.628-83.877-83.878s37.627-83.878,83.877-83.878
						s83.878,37.628,83.878,83.878S2602.896,1113.128,2556.646,1113.128z M2556.646,965.372c-35.222,0-63.877,28.655-63.877,63.878
						c0,35.223,28.655,63.878,63.877,63.878c35.223,0,63.878-28.655,63.878-63.878
						C2620.523,994.027,2591.868,965.372,2556.646,965.372z"/>
				</g>
				<g>
					<path style="fill:#9BD6E8;" d="M2451.439,1113.128c-46.25,0-83.878-37.628-83.878-83.878s37.628-83.878,83.878-83.878
						s83.877,37.628,83.877,83.878S2497.689,1113.128,2451.439,1113.128z M2451.439,965.372c-35.223,0-63.878,28.655-63.878,63.878
						c0,35.223,28.655,63.878,63.878,63.878c35.222,0,63.877-28.655,63.877-63.878
						C2515.316,994.027,2486.661,965.372,2451.439,965.372z"/>
				</g>
				<g>
					<path style="fill:#9BD6E8;" d="M2342.128,1113.128c-46.25,0-83.878-37.628-83.878-83.878s37.628-83.878,83.878-83.878
						s83.877,37.628,83.877,83.878S2388.378,1113.128,2342.128,1113.128z M2342.128,965.372c-35.223,0-63.878,28.655-63.878,63.878
						c0,35.223,28.655,63.878,63.878,63.878c35.222,0,63.877-28.655,63.877-63.878
						C2406.005,994.027,2377.35,965.372,2342.128,965.372z"/>
				</g>
				<g>
					<path style="fill:#9BD6E8;" d="M2236.921,1113.128c-46.25,0-83.878-37.628-83.878-83.878s37.628-83.878,83.878-83.878
						s83.878,37.628,83.878,83.878S2283.171,1113.128,2236.921,1113.128z M2236.921,965.372c-35.223,0-63.878,28.655-63.878,63.878
						c0,35.223,28.655,63.878,63.878,63.878s63.878-28.655,63.878-63.878C2300.799,994.027,2272.144,965.372,2236.921,965.372z"/>
				</g>
				<g>
					<path style="fill:#9BD6E8;" d="M2119.366,1113.128c-46.25,0-83.878-37.628-83.878-83.878s37.628-83.878,83.878-83.878
						s83.878,37.628,83.878,83.878S2165.616,1113.128,2119.366,1113.128z M2119.366,965.372c-35.223,0-63.878,28.655-63.878,63.878
						c0,35.223,28.655,63.878,63.878,63.878s63.878-28.655,63.878-63.878C2183.244,994.027,2154.589,965.372,2119.366,965.372z"/>
				</g>
			</g>
			<path style="fill:#212D51;" d="M2861.022,1752.519H1695.229c-13.327,0-22.104-10.804-19.604-24.132l126.66-675.005
				c2.501-13.327,15.332-24.132,28.66-24.132h1165.794c13.327,0,22.104,10.805,19.604,24.132l-126.66,675.005
				C2887.182,1741.715,2874.351,1752.519,2861.022,1752.519z"/>
			<path style="fill:#2E5B9A;" d="M2882.833,1752.519H1717.039c-13.328,0-22.104-10.804-19.604-24.132l126.66-675.005
				c2.501-13.327,15.332-24.132,28.66-24.132H3018.55c13.327,0,22.104,10.805,19.604,24.132l-126.66,675.005
				C2908.992,1741.715,2896.161,1752.519,2882.833,1752.519z"/>
			<path style="fill:#212D51;" d="M3118.049,1752.519H1952.255c-13.328,0-26.037-10.804-28.388-24.132l-119.021-675.005
				c-2.35-13.327,6.55-24.132,19.877-24.132h1165.794c13.327,0,26.037,10.805,28.388,24.132l119.021,675.005
				C3140.275,1741.715,3131.376,1752.519,3118.049,1752.519z"/>
			<path style="fill:#3E6BAB;" d="M3142.352,1752.519H1976.557c-13.327,0-26.037-10.804-28.387-24.132l-119.021-675.005
				c-2.35-13.327,6.549-24.132,19.877-24.132h1165.794c13.328,0,26.037,10.805,28.387,24.132l119.022,675.005
				C3164.578,1741.715,3155.679,1752.519,3142.352,1752.519z"/>
			<path style="fill:#212D51;" d="M2831.345,1095.179c4.021,11.225,0.508,20.324-7.846,20.324s-18.385-9.1-22.405-20.324
				s-0.508-20.323,7.846-20.323S2827.324,1083.954,2831.345,1095.179z"/>
			<path style="fill:#212D51;" d="M2724.587,1095.179c4.021,11.225,0.508,20.324-7.846,20.324s-18.385-9.1-22.405-20.324
				s-0.508-20.323,7.846-20.323S2720.566,1083.954,2724.587,1095.179z"/>
			<path style="fill:#212D51;" d="M2606.059,1095.179c4.02,11.225,0.508,20.324-7.846,20.324s-18.385-9.1-22.405-20.324
				s-0.508-20.323,7.846-20.323S2602.038,1083.954,2606.059,1095.179z"/>
			<path style="fill:#212D51;" d="M2499.301,1095.179c4.021,11.225,0.508,20.324-7.846,20.324s-18.385-9.1-22.405-20.324
				s-0.508-20.323,7.846-20.323S2495.28,1083.954,2499.301,1095.179z"/>
			<path style="fill:#212D51;" d="M2396.115,1097.085c4.021,11.225,0.508,20.324-7.846,20.324s-18.385-9.1-22.405-20.324
				c-4.021-11.224-0.508-20.323,7.846-20.323S2392.094,1085.861,2396.115,1097.085z"/>
			<path style="fill:#212D51;" d="M2294.915,1097.085c4.021,11.225,0.508,20.324-7.846,20.324s-18.385-9.1-22.405-20.324
				c-4.02-11.224-0.508-20.323,7.846-20.323S2290.895,1085.861,2294.915,1097.085z"/>
			<path style="fill:#212D51;" d="M2182.151,1097.085c4.021,11.225,0.507,20.324-7.846,20.324c-8.354,0-18.385-9.1-22.405-20.324
				c-4.021-11.224-0.508-20.323,7.846-20.323S2178.131,1085.861,2182.151,1097.085z"/>
			<g>
				<g>
					<path style="fill:#9BD6E8;" d="M2811.246,1104.182c-3.544,0-6.978-1.889-8.792-5.221c-2.641-4.851-0.849-10.924,4.002-13.564
						c20.594-11.21,33.387-32.725,33.387-56.146c0-35.223-28.655-63.878-63.878-63.878c-5.522,0-10-4.478-10-10
						c0-5.522,4.478-10,10-10c46.25,0,83.878,37.628,83.878,83.878c0,30.752-16.792,58.997-43.824,73.713
						C2814.5,1103.789,2812.861,1104.182,2811.246,1104.182z"/>
				</g>
				<g>
					<path style="fill:#9BD6E8;" d="M2705.599,1104.42c-3.568,0-7.021-1.915-8.824-5.28c-2.607-4.868-0.774-10.93,4.094-13.537
						c20.829-11.156,33.768-32.749,33.768-56.353c0-34.175-26.715-62.202-60.818-63.806c-5.517-0.26-9.778-4.942-9.52-10.459
						c0.26-5.518,4.955-9.756,10.459-9.52c44.792,2.107,79.879,38.909,79.879,83.784c0,30.99-16.984,59.339-44.324,73.983
						C2708.809,1104.038,2707.191,1104.42,2705.599,1104.42z"/>
				</g>
				<g>
					<path style="fill:#9BD6E8;" d="M2588.084,1106.129c-3.753,0-7.35-2.122-9.055-5.742c-2.353-4.997-0.208-10.955,4.788-13.308
						c22.298-10.497,36.706-33.197,36.706-57.829c0-34.209-26.743-62.237-60.883-63.809c-5.517-0.254-9.783-4.932-9.529-10.449
						c0.254-5.518,4.902-9.815,10.449-9.529c44.839,2.064,79.963,38.867,79.963,83.787c0,32.341-18.914,62.143-48.187,75.925
						C2590.96,1105.822,2589.511,1106.129,2588.084,1106.129z"/>
				</g>
				<g>
					<path style="fill:#9BD6E8;" d="M2480.754,1107.088c-3.867,0-7.549-2.257-9.183-6.032c-2.193-5.068,0.138-10.955,5.207-13.148
						c23.411-10.129,38.538-33.153,38.538-58.657c0-34.213-26.745-62.241-60.889-63.81c-5.517-0.253-9.784-4.931-9.53-10.448
						c0.253-5.518,4.94-9.815,10.448-9.53c44.844,2.06,79.971,38.864,79.971,83.788c0,33.485-19.86,63.715-50.597,77.013
						C2483.427,1106.822,2482.079,1107.088,2480.754,1107.088z"/>
				</g>
				<g>
					<path style="fill:#9BD6E8;" d="M2375.478,1105.195c-3.649,0-7.166-2.005-8.929-5.482c-2.495-4.927-0.525-10.944,4.401-13.44
						c21.623-10.954,35.055-32.804,35.055-57.022c0-34.03-26.594-62.051-60.544-63.792c-5.516-0.283-9.757-4.984-9.475-10.5
						c0.283-5.517,5.004-9.737,10.5-9.475c44.59,2.287,79.519,39.082,79.519,83.767c0,31.798-17.632,60.484-46.016,74.864
						C2378.541,1104.848,2376.997,1105.195,2375.478,1105.195z"/>
				</g>
				<g>
					<path style="fill:#9BD6E8;" d="M2273.756,1103.312c-3.46,0-6.824-1.797-8.675-5.011c-2.757-4.785-1.112-10.899,3.674-13.656
						c19.766-11.387,32.044-32.612,32.044-55.395c0-33.163-24.86-60.504-57.826-63.596c-5.499-0.516-9.538-5.392-9.022-10.89
						c0.515-5.498,5.386-9.552,10.89-9.022c20.703,1.941,39.867,11.488,53.96,26.882c14.187,15.495,21.999,35.604,21.999,56.626
						c0,29.912-16.117,57.779-42.062,72.725C2277.165,1102.881,2275.448,1103.312,2273.756,1103.312z"/>
				</g>
				<g>
					<path style="fill:#9BD6E8;" d="M2159.854,1101.063c-3.257,0-6.45-1.588-8.37-4.515c-3.03-4.617-1.743-10.816,2.874-13.847
						c18.087-11.87,28.886-31.852,28.886-53.451c0-32.024-23.907-59.258-55.61-63.349c-5.478-0.707-9.345-5.72-8.639-11.197
						c0.707-5.477,5.72-9.341,11.197-8.639c41.646,5.374,73.052,41.135,73.052,83.185c0,28.36-14.173,54.594-37.913,70.172
						C2163.64,1100.532,2161.736,1101.063,2159.854,1101.063z"/>
				</g>
			</g>
			<path style="fill:#FFFFFF;" d="M3104.342,1730.352H2006.749c-11.61,0-22.683-9.413-24.73-21.023l-95.7-542.743
				c-2.047-11.61,5.706-21.023,17.316-21.023h1097.593c11.61,0,22.683,9.413,24.73,21.023l95.7,542.743
				C3123.705,1720.938,3115.953,1730.352,3104.342,1730.352z"/>
			<g>
				<g>
					<path style="fill:#9EC8FF;" d="M3079.6,1694.983H2019.019l-0.146-0.826l-90.496-513.228h1060.581l0.146,0.826L3079.6,1694.983z
						 M2020.696,1692.983h1056.521l-89.937-510.054H1930.76L2020.696,1692.983z"/>
				</g>
				<g>
					<rect x="2001.8" y="1590.572" style="fill:#9EC8FF;" width="1058.551" height="2"/>
				</g>
				<g>
					<rect x="1983.742" y="1488.162" style="fill:#9EC8FF;" width="1058.551" height="2"/>
				</g>
				<g>
					<rect x="1965.685" y="1385.751" style="fill:#9EC8FF;" width="1058.551" height="2"/>
				</g>
				<g>
					<rect x="1947.626" y="1283.341" style="fill:#9EC8FF;" width="1058.551" height="2"/>
				</g>
				<g>
					
						<rect x="2881.042" y="1177.98" transform="matrix(0.9848 -0.1736 0.1736 0.9848 -205.914 522.3078)" style="fill:#9EC8FF;" width="1.999" height="519.953"/>
				</g>
				<g>
					
						<rect x="2729.821" y="1177.98" transform="matrix(0.9848 -0.1736 0.1736 0.9848 -208.2116 496.049)" style="fill:#9EC8FF;" width="1.999" height="519.953"/>
				</g>
				<g>
					
						<rect x="2578.6" y="1177.98" transform="matrix(0.9848 -0.1736 0.1736 0.9848 -210.5072 469.7843)" style="fill:#9EC8FF;" width="1.999" height="519.953"/>
				</g>
				<g>
					
						<rect x="2427.378" y="1177.98" transform="matrix(0.9848 -0.1736 0.1736 0.9848 -212.8064 443.5303)" style="fill:#9EC8FF;" width="1.999" height="519.953"/>
				</g>
				<g>
					
						<rect x="2276.157" y="1177.98" transform="matrix(0.9848 -0.1736 0.1736 0.9848 -215.1038 417.2708)" style="fill:#9EC8FF;" width="1.999" height="519.953"/>
				</g>
				<g>
					
						<rect x="2124.935" y="1177.98" transform="matrix(0.9848 -0.1736 0.1736 0.9848 -217.401 391.011)" style="fill:#9EC8FF;" width="1.999" height="519.953"/>
				</g>
			</g>
			<path style="fill:#F39892;" d="M2959.92,1246.595h-35.592c-13.576,0-26.643-11.108-29.036-24.685s6.755-24.684,20.331-24.684
				h35.592c13.576,0,26.643,11.107,29.037,24.684C2982.646,1235.486,2973.496,1246.595,2959.92,1246.595z"/>
			<path style="fill:#F39892;" d="M3009.275,1453.253h-61.424c-6.472,0-12.701-5.296-13.843-11.768l-4.555-25.833
				c-1.142-6.472,3.221-11.768,9.693-11.768h61.423c6.473,0,12.702,5.296,13.844,11.768l4.555,25.833
				C3020.109,1447.957,3015.748,1453.253,3009.275,1453.253z"/>
			<path style="fill:#9EC8FF;" d="M2229.836,1371.738h-83.527c-9.233,0-18.121-7.556-19.75-16.79l-6.934-39.325
				c-1.628-9.234,4.595-16.79,13.829-16.79h83.527c9.234,0,18.122,7.556,19.75,16.79l6.935,39.325
				C2245.294,1364.183,2239.07,1371.738,2229.836,1371.738z"/>
			<path style="fill:#FFFFFF;" d="M2216.262,1361.47h-59.998c-6.634,0-13.018-5.427-14.188-12.061l-4.98-28.247
				c-1.17-6.634,3.301-12.061,9.934-12.061h59.998c6.633,0,13.018,5.427,14.188,12.061l4.98,28.247
				C2227.365,1356.043,2222.895,1361.47,2216.262,1361.47z"/>
			<path style="fill:#9EC8FF;" d="M2890.087,1678.281h-83.527c-9.234,0-18.122-7.556-19.75-16.79l-6.935-39.325
				c-1.628-9.234,4.595-16.789,13.829-16.789h83.527c9.234,0,18.122,7.555,19.75,16.789l6.935,39.325
				C2905.544,1670.726,2899.321,1678.281,2890.087,1678.281z"/>
			<path style="fill:#FFFFFF;" d="M2876.512,1668.013h-59.998c-6.634,0-13.018-5.427-14.188-12.06l-4.98-28.248
				c-1.17-6.633,3.301-12.061,9.934-12.061h59.998c6.633,0,13.018,5.428,14.188,12.061l4.98,28.248
				C2887.615,1662.586,2883.145,1668.013,2876.512,1668.013z"/>
			<path style="fill:#9EC8FF;" d="M2533.727,1320.073h-65.441c-4.42,0-8.675-3.616-9.454-8.037c-0.779-4.42,2.199-8.036,6.62-8.036
				h65.441c4.42,0,8.675,3.616,9.454,8.036C2541.126,1316.457,2538.147,1320.073,2533.727,1320.073z"/>
			<path style="fill:#9EC8FF;" d="M2538.181,1345.332h-65.442c-4.42,0-8.674-3.617-9.453-8.037s2.199-8.037,6.619-8.037h65.442
				c4.42,0,8.674,3.617,9.453,8.037C2545.58,1341.715,2542.601,1345.332,2538.181,1345.332z"/>
			<path style="fill:#9EC8FF;" d="M2442.814,1624.895h-65.442c-4.42,0-8.675-3.616-9.454-8.037c-0.779-4.42,2.199-8.036,6.62-8.036
				h65.442c4.42,0,8.674,3.616,9.453,8.036C2450.213,1621.278,2447.234,1624.895,2442.814,1624.895z"/>
			<path style="fill:#9EC8FF;" d="M2447.268,1650.152h-65.441c-4.421,0-8.675-3.616-9.454-8.036s2.199-8.037,6.619-8.037h65.442
				c4.42,0,8.675,3.617,9.454,8.037S2451.688,1650.152,2447.268,1650.152z"/>
			<path style="fill:#9EC8FF;" d="M2069.844,1433.735h-65.442c-4.42,0-8.675-3.616-9.454-8.036c-0.779-4.421,2.2-8.037,6.62-8.037
				h65.441c4.421,0,8.675,3.616,9.454,8.037C2077.242,1430.119,2074.264,1433.735,2069.844,1433.735z"/>
			<path style="fill:#9EC8FF;" d="M2074.297,1458.994h-65.441c-4.421,0-8.675-3.617-9.454-8.037s2.199-8.037,6.619-8.037h65.442
				c4.42,0,8.674,3.617,9.453,8.037C2081.696,1455.377,2078.717,1458.994,2074.297,1458.994z"/>
			<g>
				<path style="fill:#9CD499;" d="M2276.729,1580.105h-96.942c-8.387,0-16.459-6.861-17.938-15.248l-7.676-43.53
					c-1.479-8.387,4.174-15.249,12.56-15.249h96.942c8.387,0,16.459,6.862,17.938,15.249l7.676,43.53
					C2290.768,1573.244,2285.116,1580.105,2276.729,1580.105z"/>
				<g>
					<path style="fill:#FFFFFF;" d="M2217.909,1562.286c-0.51,0-1.003-0.195-1.375-0.548l-21.766-20.604
						c-0.802-0.759-0.837-2.025-0.077-2.827c0.76-0.801,2.026-0.836,2.827-0.077l20.229,19.149l30.687-36.297
						c0.713-0.843,1.977-0.949,2.818-0.236c0.844,0.713,0.949,1.975,0.236,2.818l-32.053,37.913
						c-0.355,0.42-0.867,0.676-1.416,0.706C2217.983,1562.285,2217.946,1562.286,2217.909,1562.286z"/>
				</g>
			</g>
			<g>
				<path style="fill:#9CD499;" d="M2674.693,1268.396h-96.943c-8.386,0-16.458-6.861-17.937-15.248l-7.676-43.53
					c-1.479-8.387,4.173-15.249,12.56-15.249h96.942c8.387,0,16.459,6.862,17.938,15.249l7.676,43.53
					C2688.731,1261.534,2683.08,1268.396,2674.693,1268.396z"/>
				<g>
					<path style="fill:#FFFFFF;" d="M2615.873,1250.576c-0.51,0-1.003-0.195-1.375-0.548l-21.766-20.604
						c-0.802-0.759-0.837-2.025-0.077-2.827c0.759-0.802,2.026-0.836,2.827-0.077l20.229,19.149l30.687-36.297
						c0.713-0.843,1.977-0.949,2.818-0.236c0.844,0.713,0.949,1.975,0.236,2.818l-32.053,37.913
						c-0.355,0.42-0.867,0.676-1.416,0.706C2615.947,1250.575,2615.91,1250.576,2615.873,1250.576z"/>
				</g>
			</g>
			<path style="fill:#9EC8FF;" d="M2705.201,1540.509c3.354,19.022-9.347,34.443-28.369,34.443
				c-19.023,0-37.162-15.421-40.517-34.443s9.348-34.442,28.37-34.442C2683.707,1506.066,2701.848,1521.486,2705.201,1540.509z"/>
			<path style="fill:#9EC8FF;" d="M2277.687,1645.561c3.354,19.022-9.347,34.443-28.369,34.443s-37.163-15.421-40.517-34.443
				c-3.354-19.022,9.348-34.443,28.37-34.443S2274.333,1626.538,2277.687,1645.561z"/>
		</g>
		<g>
			<path style="fill:#9EC8FF;" d="M562.205,966.404h157.569c0,86.44-71.129,157.57-157.569,157.57
				c-86.44,0-157.57-71.13-157.57-157.57c0-86.44,71.129-157.57,157.57-157.57V966.404z"/>
			<g>
				<path style="fill:#F39892;" d="M746.164,944.341c0-87.023-70.546-157.569-157.569-157.569v157.569H746.164z"/>
			</g>
		</g>
		<g>
			<rect x="431.631" y="1501.859" style="fill:#9EC8FF;" width="97.455" height="205.666"/>
			<rect x="732.863" y="1286.964" style="fill:#9EC8FF;" width="97.455" height="420.561"/>
			<rect x="883.479" y="1491.231" style="fill:#9EC8FF;" width="97.455" height="216.294"/>
			<rect x="1034.096" y="1430.008" style="fill:#9EC8FF;" width="97.455" height="277.518"/>
			<rect x="582.248" y="1366.066" style="fill:#9EC8FF;" width="97.454" height="341.459"/>
			<rect x="1185.216" y="1182.909" style="fill:#9EC8FF;" width="97.455" height="524.616"/>
			<rect x="441.376" y="1511.604" style="fill:#5D9EF5;" width="87.49" height="205.667"/>
			<rect x="742.609" y="1296.709" style="fill:#5D9EF5;" width="87.49" height="420.563"/>
			<rect x="893.225" y="1500.978" style="fill:#5D9EF5;" width="87.489" height="216.294"/>
			<rect x="1043.841" y="1439.753" style="fill:#5D9EF5;" width="87.49" height="277.519"/>
			<rect x="591.993" y="1375.812" style="fill:#5D9EF5;" width="87.49" height="341.46"/>
			<rect x="1194.962" y="1192.654" style="fill:#5D9EF5;" width="87.489" height="524.617"/>
			<g>
				<path style="fill:#F37168;" d="M404.648,1445.572c-4.748,0-9.419-2.248-12.333-6.443c-4.726-6.805-3.042-16.151,3.763-20.877
					l381.719-265.136c6.237-4.335,14.736-3.319,19.779,2.367l140.282,158.196l300.511-287.403c5.985-5.725,15.48-5.516,21.208,0.474
					c5.726,5.986,5.514,15.481-0.474,21.208l-311.767,298.168c-2.947,2.818-6.927,4.322-10.983,4.146
					c-4.073-0.168-7.902-1.985-10.606-5.035L783.97,1185.355l-370.777,257.535C410.584,1444.703,407.601,1445.572,404.648,1445.572z
					"/>
			</g>
			<g>
				<path style="fill:#F37168;" d="M1243.606,1116.913c-0.997,0-2.008-0.1-3.022-0.308c-8.116-1.66-13.35-9.586-11.688-17.702
					l10.777-52.677l-57.475,5.814c-8.224,0.83-15.6-5.17-16.434-13.414c-0.834-8.242,5.172-15.6,13.414-16.434l77.769-7.867
					c4.754-0.478,9.439,1.327,12.639,4.866c3.198,3.54,4.523,8.39,3.566,13.064l-14.866,72.66
					C1256.833,1112.019,1250.583,1116.913,1243.606,1116.913z"/>
			</g>
		</g>
	</g>
	<g>
		<path style="fill:#303C60;" d="M2853.718,889.139c26.882-53.778,97.206-78.168,117.166-18.264s26.878,63.714,54.979,88.773
			c97.505,86.953-50.776,139.077-102.96,161.925c-52.184,22.849-73.06-73.968-77.035-150.915
			C2842.762,910.54,2845.852,904.875,2853.718,889.139z"/>
		<path style="fill:#4476BD;" d="M2933.049,1700.463c5.26,21.377-5.124,38.33-19.026,50.688
			c-11.306,10.049-46.06,14.319-44.385,19.344s42.71,6.617,56.528,4.523c13.817-2.094,17.586-8.793,34.785-8.785
			c11.274,0.006,13.367-9.164,8.343-20.498c-5.024-11.333-6.782-17.6-2.241-27.759S2933.049,1700.463,2933.049,1700.463z"/>
		<path style="fill:#4476BD;" d="M3138.104,1700.463c-0.838,22.192-3.414,38.727,2.029,49.013
			c21.023,17.586,38.499,37.563,31.823,38.94c-31.823,6.573-43.966-12.501-61.971-17.922c-22.096-6.652,2.093-34.418-6.563-70.031
			c-4.813-19.799,33.361-15.053,33.361-15.053L3138.104,1700.463z"/>
		<path style="fill:#F37168;" d="M2987.919,1193.976c-13.962,117.246-39.329,203.917-42.155,259.5
			c-2.827,55.583-14.132,274.436-14.132,274.436s31.089-2.175,33.915-6.885s58.409-128.123,55.583-204.432
			c-2.827-76.309,55.515-192.335,55.515-192.335l-14.063-113.841L2987.919,1193.976z"/>
		<path style="fill:#D54A41;" d="M3001.326,1245.019l-21.834,9.136c-5.936,37.179-12.52,70.606-18.302,100.253
			c34.747,22.464,52.695,97.304,60.386,143.058c3.918-51.197,28.075-113.063,43.063-147.273L3001.326,1245.019z"/>
		<path style="fill:#F37168;" d="M3102.148,1182.156c0,0,47.058,60.023,45.582,128.123c-2.246,103.665-13.551,133.262,6.119,241.958
			c7.682,42.454-16.956,181.326-16.956,181.326s-21.05,1.65-32.354-3.979c0.942-10.204-13.602-176.19-41.933-252.495
			c-13.718-36.948-32.998-140.433-43.361-199.783c-10.362-59.352-12.247-71.599-8.479-71.599S3102.148,1182.156,3102.148,1182.156z"
			/>
		<path style="fill:#85BAFF;" d="M2683.045,1319.031l-65.011,7.498c-4.392,0.507-9.032-2.599-10.313-6.9
			c-1.281-4.302,1.264-8.235,5.655-8.742l65.011-7.499c4.391-0.506,9.031,2.599,10.313,6.9
			C2689.98,1314.59,2687.436,1318.524,2683.045,1319.031z"/>
		<path style="fill:#85BAFF;" d="M2690.363,1343.612l-65.011,7.499c-4.392,0.506-9.032-2.599-10.313-6.9s1.265-8.236,5.655-8.742
			l65.011-7.499c4.392-0.507,9.031,2.599,10.313,6.9C2697.299,1339.172,2694.754,1343.105,2690.363,1343.612z"/>
		<path style="fill:#F09959;" d="M2732.504,1282.471c-19.49,6.173-31.234,7.472-45.016,6.497
			c-13.782-0.975-22.877,7.147-30.999,10.396c-8.121,3.249-11.37,8.357,2.274,6.497c13.644-1.86,20.234-1.86,20.234-1.86
			s9.842,2.194,14.39,5.443c2.187,1.562,3.821,3.018,7.173,6.244c4.052,3.9,3.839,11.393,0.4,15.843
			c-3.724,4.821-6.137,10.139-9.979,12.033c-7.206,3.553-0.415,7.823,6.763,3.553c6.822-4.059,10.72-9.821,15.918-15.593
			c7.436-8.257,14.293-21.588,21.114-27.523C2741.6,1298.064,2732.504,1282.471,2732.504,1282.471z"/>
		<path style="fill:#A2DFF2;" d="M2927.187,1050.182c-31.608,64.992-61.494,134.51-101.126,166.995
			c-39.631,32.484-102.914,67.164-102.914,67.164s8.708,24.443,12.605,25.093c3.898,0.649,98.105-32.681,125.393-50.774
			s84.949-79.282,84.949-79.282L2927.187,1050.182z"/>
		<path style="fill:#96CFE0;" d="M2924.185,1202.41c25.963-23.382,51.48-61.894,50.685-65.949
			c-1.068-5.438-39.384-105.917-39.384-105.917c-8.293,19.499-15.46,36.723-21.647,51.758
			C2917.68,1127.837,2934.726,1172.772,2924.185,1202.41z"/>
		<path style="fill:#A2DFF2;" d="M2982.781,963.628c0,0,70.316,8.349,102.388,56.486c32.071,48.137,17.181,127.29,25.03,163.829
			c7.851,36.538-98.631,81.909-112.093,44.625c-12.905-35.743-67.534-101.784-72.975-121.665
			c-12.767-46.648,33.464-126.133,33.464-126.133L2982.781,963.628z"/>
		<path style="fill:#F09959;" d="M2940.768,901.435l54.022,69.595c0,0-19.688,30.917-48.105,98.451
			c-10.36-34.372,4.616-81.325,4.616-81.325l-46.211-67.454L2940.768,901.435z"/>
		<path style="fill:#E38540;" d="M2965.965,933.896l-25.197-32.461l-35.678,19.267l46.211,67.454c0,0-0.801,3.689-1.875,9.425
			C2962.758,977.484,2967.857,956.623,2965.965,933.896z"/>
		<path style="fill:#F09959;" d="M2933.106,924.312c2.163,27.574-19.55,51.022-40.403,52.658
			c-20.853,1.635-32.95-19.162-35.113-46.735c-2.162-27.574,12.99-51.252,33.844-52.887
			C2912.287,875.711,2930.944,896.738,2933.106,924.312z"/>
		<path style="fill:#A2DFF2;" d="M2983.104,1162.77c8.802,55.765-23.874,175.071-23.874,175.071s19.485,4.426,77.897-1.227
			c58.412-5.653,84.164-63.95,92.957-65.577c8.793-1.628,13.31,54.252,17.646,58.668c4.336,4.416,4.997-70.567-6.341-100.044
			c-20.099-52.253-16.163-74.417-8.651-106.076C3146.096,1067.293,2983.104,1162.77,2983.104,1162.77z"/>
		<path style="fill:#96CFE0;" d="M3146.139,1247.852c-1.27-6.956-2.838-13.222-4.749-18.19
			c-20.099-52.253-16.163-74.417-8.651-106.076c0.592-2.496-46.655-78.406-46.655-78.406l-61.405-66
			c-58.932,95.676,12.243,140.966,6.713,178.023c-5.529,37.058-34.047,65.244-34.047,65.244l2.01,13.147
			c2.757,18.035,19.477,30.563,37.549,28.055c25.456-3.532,58.851-10.631,73.711-24.42
			C3124.994,1225.884,3137.728,1236.209,3146.139,1247.852z"/>
		<path style="fill:#F09959;" d="M3001.305,1231.487c0,0-25.623,12.049-28.554,14.273s-3.213,11.41-3.213,11.41
			s-13.14,15.956-6.447,19.696s19.238,13.948,32.222,6.03c7.969-4.86,9.305-37.37,14.865-38.565
			C3015.738,1243.136,3001.305,1231.487,3001.305,1231.487z"/>
		<path style="fill:#A2DFF2;" d="M3036.348,974.521c28.916-4.03,63.732,43.408,80.396,86.843
			c16.663,43.437,36.995,105.753,36.995,105.753s-41.354,45.669-86.626,64.603c-39.492,16.518-59.847,23.804-59.847,23.804
			l-12.291-22.064l88.63-74.331c0,0-47.636-62.042-59.886-112.844C3011.471,995.481,3014.374,977.583,3036.348,974.521z"/>
		<path style="fill:#303C60;" d="M2852.459,900.277c19.295,48.681,75.434,24.147,90.091,15.422s18.321,110.785,50.557,106.118
			c23.671-3.428,11.244-32.693,34.433-44.758c17.082-8.888,30.534,3.425,30.534,3.425s-5.353-9.725-16.313-14.186
			c-10.959-4.462-54.404-33.703-71.906-64.334c-17.502-30.631-63.732-37.838-75.389-34.367
			c-11.657,3.471-34.928,26.563-34.928,26.563L2852.459,900.277z"/>
		<g>
			<path style="fill:#303C60;" d="M2991.927,1034.809c-21.422,0-30.759-42.087-41.516-90.561
				c-2.145-9.661-4.361-19.651-6.685-29.256c-0.316-1.308,0.487-2.624,1.796-2.94c1.308-0.318,2.624,0.487,2.94,1.795
				c2.334,9.649,4.556,19.663,6.705,29.346c9.731,43.849,19.792,89.154,38.449,86.625c11.283-1.553,13.461-26.093,11.737-48.541
				c-0.104-1.342,0.9-2.513,2.242-2.615c1.347-0.109,2.513,0.9,2.615,2.242c1.179,15.337,1.983,51.276-15.931,53.74
				C2993.481,1034.754,2992.694,1034.809,2991.927,1034.809z"/>
		</g>
		<g>
			<path style="fill:#303C60;" d="M2992.803,1047.624c-2.059,0-4.121-0.517-6.175-1.552c-27.49-13.849-45.721-125.25-46.483-129.985
				c-0.214-1.329,0.689-2.579,2.018-2.793c1.336-0.216,2.579,0.69,2.793,2.018c5.086,31.576,22.881,115.839,43.865,126.409
				c2.709,1.365,5.326,1.354,8.005-0.033c9.235-4.782,10.109-20.44,10.881-34.255c0.779-13.956,1.516-27.138,10.621-30.067
				c1.275-0.412,2.653,0.291,3.065,1.573c0.412,1.28-0.292,2.653-1.573,3.065c-5.92,1.904-6.564,13.463-7.248,25.7
				c-0.844,15.116-1.801,32.249-13.506,38.31C2996.993,1047.087,2994.899,1047.624,2992.803,1047.624z"/>
		</g>
		<path style="fill:#F09959;" d="M2948.098,924.385c-2.166,6.685-7.846,10.833-12.686,9.265s-7.007-8.259-4.841-14.945
			c2.167-6.685,7.847-10.833,12.687-9.265S2950.265,917.699,2948.098,924.385z"/>
	</g>
	<g>
		<path style="fill:#232E4F;" d="M1354.999,1674.597c0,0-185.89-129.116-264.522-54.669
			c-62.786,59.445,48.664,129.282,191.24,110.504c100.356-13.218,111.73,5.979,129.309,5.565
			c130.804-10.023,307.054-49.157,221.282-110.641c-116.845-83.756-195.882,5.038-236.595,27.139
			C1354.999,1674.597,1354.999,1674.597,1354.999,1674.597z"/>
		<path style="fill:#1B243D;" d="M1595.34,1622.255c-48.857-10.082-234.982,58.939-234.982,58.939s-162.083-48.858-200.859-53.511
			c-38.776-4.653-56.613,10.081-56.613,10.081s18.295-20.617,39.551-22.49c21.256-1.872,51.96-6.979,51.96-6.979
			s310.208-14.734,351.311-5.429C1586.81,1612.173,1595.34,1622.255,1595.34,1622.255z"/>
		<path style="fill:#FFD24F;" d="M1331.734,1370.996c-7.371,1.163-121.959,51.146-123.365,72.084s31.394,190.804,94.828,212.905
			c63.434,22.101,134.391,0,134.391,0s74.446-183.789,52.345-218.686c-22.101-34.896-122.138-66.304-122.138-66.304H1331.734z"/>
		<path style="fill:#FFD24F;" d="M1247.514,1410.56c-109.472,58.659-136.356,164.568-107.404,187.912
			c20.288,16.358,96.784,52.538,163.087,50.212s128.574,3.916,128.574,3.916s113.741-23.143,136.425-57.229
			c22.685-34.087-40.25-144.814-96.681-176.819C1415.083,1386.547,1247.514,1410.56,1247.514,1410.56z"/>
		<path style="fill:#F09959;" d="M1351.895,1437.3c-15.143,0-27.532-12.39-27.532-27.532v-92.665
			c0-15.143,12.389-27.532,27.532-27.532s27.532,12.39,27.532,27.532v92.665C1379.427,1424.91,1367.038,1437.3,1351.895,1437.3z"/>
		<path style="fill:#E38540;" d="M1351.895,1289.57c-15.143,0-27.532,12.39-27.532,27.532v75.773
			c16.233,13.563,31.949,6.457,55.063-11.456v-64.317C1379.427,1301.96,1367.038,1289.57,1351.895,1289.57z"/>
		<path style="fill:#F09959;" d="M1412.322,1320.848c-4.524,9.236-11.872,14.357-16.411,11.44
			c-4.54-2.918-4.553-12.771-0.028-22.007c4.524-9.235,11.871-14.357,16.411-11.44
			C1416.833,1301.759,1416.846,1311.611,1412.322,1320.848z"/>
		<path style="fill:#F09959;" d="M1305.8,1310.969c5.231,8.404,6.236,18.56,2.243,22.683c-3.993,4.124-11.471,0.653-16.702-7.75
			c-5.232-8.403-6.236-18.56-2.244-22.683S1300.568,1302.565,1305.8,1310.969z"/>
		<path style="fill:#F09959;" d="M1400.481,1320.254c0,33.673-21.199,60.969-47.349,60.969s-47.349-27.296-47.349-60.969
			c0-33.672,21.199-60.968,47.349-60.968S1400.481,1286.582,1400.481,1320.254z"/>
		<path style="fill:#EDC055;" d="M1456.375,1471.152c31.021,16.545,58.053,79.237,58.053,79.237s-69.797,10.857-84.273,21.715
			c-14.476,10.857,2.068-4.137,10.34-34.123C1448.767,1507.994,1456.375,1471.152,1456.375,1471.152z"/>
		<path style="fill:#EDC055;" d="M1240.411,1466.634c7.238,33.089,41.878,125.468,41.878,125.468s-32.084-36.542-66.177-38.609
			c-34.094-2.068-46.747-2.586-46.532,5.687c0.042,1.635,5.687-36.708,32.055-60.49
			C1228.002,1474.906,1240.411,1466.634,1240.411,1466.634z"/>
		<path style="fill:#2A66C6;" d="M1448.345,1674.948h-187.312c-7.547,0-13.99-5.452-15.237-12.896l-22.585-134.797
			c-1.579-9.42,5.685-18.002,15.236-18.002h232.483c9.552,0,16.815,8.582,15.237,18.002l-22.585,134.797
			C1462.335,1669.496,1455.892,1674.948,1448.345,1674.948z"/>
		<path style="fill:#63ACC2;" d="M1448.345,1674.948h-187.312c-7.547,0-13.99-5.256-15.237-12.431l-22.585-129.933
			c-1.579-9.08,5.685-17.353,15.236-17.353h232.483c9.552,0,16.815,8.272,15.237,17.353l-22.585,129.933
			C1462.335,1669.692,1455.892,1674.948,1448.345,1674.948z"/>
		<path style="fill:#1B243D;" d="M1379.427,1728.051c-1.121-0.192-120.975-30.189-147.729-8.089
			c-26.754,22.102,89.568,22.479,110.506,17.638C1363.142,1732.758,1379.427,1728.051,1379.427,1728.051z"/>
		<path style="fill:#1B243D;" d="M1406.181,1733.43c0,0,25.591-19.283,59.324-15.794s62.814,10.846,33.733,19.964
			c-29.08,9.117-59.324,10.28-73.283,9.117C1411.997,1745.553,1406.181,1733.43,1406.181,1733.43z"/>
		<path style="fill:#0F2D5C;" d="M1338.021,1234.312c-30.756,9.33-20.052,95.914,15.111,93.062s36.59-40.291,34.094-64.537
			S1369.755,1224.685,1338.021,1234.312z"/>
		<path style="fill:#0F2D5C;" d="M1326.968,1298.492c-8.557-8.201-20.324,17.609-15.688,28.95s-1.848,17.942,4.424,30.151
			c6.272,12.21-11.555-7.757-14.051-22.376s-3.922-39.935-7.488-51.345c-3.566-11.41,0.181-31.193,16.068-35.3
			c15.888-4.105,19.587-11.409,25.649-11.766s34.943,2.495,49.205,10.34c14.263,7.845,22.107,19.61,21.037,37.438
			c-1.069,17.828-5.705,63.468-9.983,70.955c-4.279,7.488-6.493,5.714-5.208,1.432c1.285-4.283,5.92-29.956,2.355-39.227
			s-1.783-32.09-11.054-33.873s-7.131,14.025-18.185,15.214C1352.997,1300.274,1326.968,1298.492,1326.968,1298.492z"/>
	</g>
</g>
</svg>
