<svg xmlns="http://www.w3.org/2000/svg" enable-background="new 0 0 512 512" viewBox="0 0 512 512" id="save"><polygon fill="none" stroke="#000" stroke-linecap="round" stroke-linejoin="round" stroke-miterlimit="10" stroke-width="21.95" points="250.337 -205.678 501.349 -205.678 501.349 113.539 375.92 39.148 250.337 113.539" display="none"></polygon><path d="M115.612,446.811c-2.096,0-4.194-0.536-6.079-1.611c-3.831-2.184-6.198-6.255-6.198-10.666V77.466
		c0-6.78,5.496-12.277,12.276-12.277h280.776c6.78,0,12.276,5.496,12.276,12.277v357.068c0,4.411-2.367,8.484-6.201,10.667
		c-3.833,2.183-8.543,2.142-12.338-0.108l-134.043-79.5l-134.214,79.503C119.941,446.239,117.777,446.811,115.612,446.811z
		 M127.888,89.742v323.251L249.83,340.76c3.859-2.287,8.66-2.285,12.519,0.003l121.762,72.217V89.742H127.888z"></path></svg>