<?xml version="1.0" encoding="utf-8"?>
<!-- Generator: Adobe Illustrator 27.5.0, SVG Export Plug-In . SVG Version: 6.00 Build 0)  -->
<svg version="1.1" id="Design" xmlns="http://www.w3.org/2000/svg" xmlns:xlink="http://www.w3.org/1999/xlink" x="0px" y="0px"
	 viewBox="0 0 2000 2000" style="enable-background:new 0 0 2000 2000;" xml:space="preserve">
<rect style="fill:#EEEEEE;" width="2000" height="2000"/>
<g>
	<path style="fill:#476E8F;" d="M991.226,2000c-101.685,0-203.369,0-305.054,0c-2.206-2.811-1.424-6-0.941-9.036
		c7.597-47.796,8.511-95.946,8.002-144.2c-0.313-29.717,1.281-59.514-0.368-89.142c-2.545-45.737-0.508-91.719-7.138-137.234
		c-0.452-3.102-0.683-6.281-0.317-9.365c3.157-26.546,0.514-52.867-3.269-79.15c0.984,10.837,0.896,21.811,2.266,32.522
		c2.414,18.876-0.3,37.478-1.284,56.147c-1.634,31.004-8.09,61.473-11.282,92.321c-1.343,12.973-0.606,26.007-1.453,39.031
		c-1.579,24.298-5.134,48.286-10.494,71.881c-10.754,47.341-7.431,94.235,1.86,141.173c1.67,8.439,3.32,16.883,5.006,25.319
		c0.661,3.306,1.547,6.696-0.925,9.733c-68.833,0-137.665,0-206.498,0c-6.492-9.731-8.599-21.169-12.023-32.016
		c-9.667-30.627-16.981-61.809-19.531-93.939c-1.345-16.943-0.227-33.863,1.387-50.711c4.302-44.917,10.817-89.518,21.399-133.415
		c8.856-36.737,18.798-73.215,24.51-110.649c3.97-26.017,7.286-52.149,12.504-77.957c7.441-36.806,17.116-73.082,26.894-109.314
		c12.838-47.572,23.389-95.699,35.409-143.467c4.402-17.494,10.561-34.387,18.232-50.694c9.01-19.152,24.594-31.902,42.063-42.938
		c26.329-16.633,54.605-29.322,82.926-41.984c22.608-10.108,45.738-19.013,68.245-29.315c24.452-11.193,48.311-23.532,67.283-43.36
		c3.437-3.592,6.371-7.576,9.591-11.332c1.479-1.725,3.065-4.17,5.724-3.037c2.059,0.878,2.202,3.431,2.244,5.497
		c0.11,5.493,1.23,10.876,1.635,16.324c1.566,21.036,8.874,40.137,19.769,57.911c9.533,15.552,19.58,30.79,29.885,45.849
		c1.473,2.152,2.974,4.288,4.802,6.16c5.075,5.198,7.911,5.443,13.252,0.466c10.102-9.413,19.293-19.739,29.293-29.276
		c12.257-11.69,24.338-23.601,35.888-35.982c6.585-7.059,13.153-9.669,22.003-4.901c3.357,1.808,9.203,1.273,9.884,5.152
		c0.722,4.112-4.864,5.323-7.953,7.318c-16.954,10.944-22.566,26.974-24.017,46.467c-2.565,34.454,1.133,68.656,1.95,102.962
		c0.609,25.558-1.918,51.003-1.75,76.542c0.23,34.899,2.889,69.698,3.703,104.584c0.734,31.47,2.12,62.94,2.856,94.436
		c1.029,43.988,2.082,87.994,3.58,131.948c1.076,31.589-0.024,63.006-1.103,94.436c-1.561,45.499-6.629,90.869-5.769,136.475
		c0.476,25.254,3.356,50.363,5.439,75.516c0.859,10.379,1.888,20.743,2.958,31.102C992.693,1996.726,992.509,1998.499,991.226,2000z
		"/>
	<path style="fill:#476E8F;" d="M1330.696,2000c-91.777,0-183.554,0-275.33,0c-1.66-1.863-2.226-4.136-2.169-6.525
		c0.197-8.361-1.213-16.631-1.502-24.936c-2.174-62.513-3.123-125.092-1.285-187.581c1.401-47.652,3.962-95.314,2.389-142.935
		c-1.928-58.379,0.452-116.771-1.626-175.082c-1.482-41.582-2.313-83.256-6.984-124.723c-2.357-20.92-2.999-42.047-3.722-63.131
		c-0.643-18.742-3.284-37.352-5.298-55.989c-3.118-28.843-2.388-57.757-2.288-86.667c0.008-2.324-0.075-5.298,2.203-6.332
		c2.897-1.314,4.702,1.571,6.265,3.402c10.159,11.901,21.7,22.512,31.894,34.37c2.725,3.17,5.487,6.291,8.672,8.997
		c8.047,6.838,13.241,6.367,19.754-1.812c6.517-8.183,11.662-17.284,17.135-26.149c11.503-18.632,23.119-37.184,35.042-55.554
		c10.378-15.988,19.222-32.817,24.976-51.136c2.653-8.448,4.589-9.128,11.357-4.068c14.375,10.746,30.449,18.043,47.296,23.824
		c29.332,10.067,58.451,20.724,87.875,30.558c36.625,12.241,69.112,32.84,101.234,53.813c10.899,7.116,21.5,14.678,31.286,23.381
		c13.542,12.042,21.657,27.263,26.82,44.214c13.759,45.174,23.095,91.464,34.142,137.317c9.156,38.003,18.018,76.112,22.797,114.996
		c2.764,22.488,4.449,45.064,5.867,67.686c1.872,29.874,4.415,59.711,8.069,89.446c4.67,38.002,8.65,76.078,12.325,114.194
		c4.832,50.106,7.052,100.321,5.747,150.585c-0.939,36.173-1.339,72.37-2.927,108.528c-0.116,2.641-0.355,5.215-2.228,7.307
		c-60.489,0-120.979,0-181.468,0c-3.82-7.173-3.779-15.141-3.812-22.818c-0.238-56.734-5.995-112.809-18.458-168.21
		c-4.411-19.608-5.492-39.706-6.719-59.732c-1.354-22.107-4.021-44.087-6.43-66.09c-1.397-12.765-0.207-25.551,0.543-38.212
		c1.143-19.292,0.468-38.448,0.076-57.716c-0.651-32.017-3.371-64.011-1.995-88.95c-0.1,20.176,0.168,47.471,0.036,74.764
		c-0.043,8.883,1.934,17.591,1.654,26.5c-0.964,30.699-2.18,61.373-4.363,92.022c-2.091,29.363-2.663,58.816-1.857,88.246
		c0.726,26.499-2.139,52.537-8.102,78.296c-6.004,25.934-10.536,52.13-11.898,78.72c-0.883,17.239,2.234,34.244,5.47,51.151
		C1331.925,1991.972,1333.671,1996.104,1330.696,2000z"/>
	<path style="fill:#010101;" d="M1568.481,2000c-0.657-20.08,1.287-40.093,1.529-60.151c0.409-33.876,1.784-67.744,1.21-101.629
		c-0.313-18.496-0.39-37.024-1.616-55.469c-1.761-26.482-3.942-52.943-7.019-79.324c-3.015-25.848-5.314-51.78-8.499-77.606
		c-2.804-22.738-4.882-45.54-7.109-68.33c-0.835-8.545-1.286-17.158-1.626-25.722c-2.115-53.266-10.315-105.63-22.525-157.431
		c-10.328-43.82-20.609-87.651-31.165-131.416c-3.354-13.907-7.204-27.7-12.178-41.164c-5.661-15.323-14.603-28.312-27.543-38.166
		c-38.082-28.999-78.405-54.304-123.274-71.558c-16.266-6.255-33.101-11.014-49.586-16.718
		c-15.996-5.534-31.875-11.405-47.805-17.128c-17.24-6.194-33.452-14.297-48.254-26.769c-5.945,24.3-17.958,44.835-30.913,64.918
		c-8.05,12.479-16.057,24.987-23.964,37.557c-6.242,9.923-12.203,20.024-18.492,29.917c-2.649,4.167-5.575,8.213-8.81,11.937
		c-5.339,6.146-10.705,6.612-17.012,1.517c-3.634-2.936-6.998-6.256-10.191-9.677c-11.38-12.192-22.624-24.511-33.955-36.749
		c-1.172-1.266-1.962-3.009-4.665-3.736c0,15.533-0.046,30.803,0.01,46.073c0.094,25.563,2.763,50.93,5.832,76.272
		c0.876,7.232,1.573,14.517,1.786,21.794c0.624,21.353,1.96,42.664,3.51,63.959c1.114,15.313,2.79,30.584,4.066,45.887
		c0.411,4.927,0.314,9.896,0.504,14.843c1.777,46.34,4.212,92.659,3.496,139.068c-0.33,21.37-0.206,42.75-0.014,64.123
		c0.154,17.19,0.705,34.377,1.108,51.565c0.708,30.231,0.011,60.426-1.164,90.649c-2.33,59.905-2.882,119.852-1.518,179.796
		c0.598,26.297,1.8,52.58,2.728,78.869c-2.086,0-4.172,0-6.257,0c-4.432-8.184-3.133-17.367-3.629-25.976
		c-2.153-37.436-5.066-74.923-3.328-112.431c1.461-31.527,0.148-63.087,1.717-94.55c1.948-39.052,3.967-78.115,2.594-117.164
		c-2.199-62.548,0.042-125.116-1.678-187.627c-1.152-41.871-2.154-83.829-7.067-125.545c-2.437-20.694-2.129-41.599-3.31-62.397
		c-1.154-20.317-3.902-40.451-5.373-60.719c-2.023-27.867-1.642-55.753-0.386-83.592c0.533-11.802-7.191-18.447-12.84-26.553
		c-1.862-2.671-4.825-0.948-7.009,0.536c-10.757,7.313-18.689,16.628-20.565,30.011c-2.979,21.253-2.976,42.614-1.898,63.982
		c1.522,30.159,3.728,60.227,1.614,90.535c-1.5,21.513-1.173,43.202,0.467,64.837c1.2,15.822,1.818,31.755,1.923,47.606
		c0.328,50.027,3.63,99.955,3.868,150.006c0.161,33.802,2.127,67.658,2.947,101.51c0.467,19.262,1.883,38.568,1.014,57.795
		c-1.386,30.684-2.072,61.392-4.012,92.067c-2.301,36.375-3.473,72.824-0.848,109.317c1.925,26.751,4.298,53.468,6.039,80.232
		c0.19,2.925,0.223,5.748-1.866,8.118c-2.086,0-4.172,0-6.258,0c-2.558-14.115-3.185-28.443-4.532-42.684
		c-1.741-18.396-3.459-36.816-4.358-55.265c-1.002-20.557-1.045-41.153,0.309-61.729c0.941-14.29,1.633-28.597,2.378-42.899
		c1.423-27.3,3.21-54.589,4.06-81.907c0.559-17.948,0.632-35.933-0.369-53.918c-0.781-14.04-0.597-28.143-0.58-42.217
		c0.033-27.886-2.022-55.693-2.919-83.541c-0.613-19.014,0.224-38.085-0.725-57.074c-1.444-28.881-1.836-57.795-3.236-86.66
		c-1.476-30.455-3.325-60.893-2.15-91.368c0.814-21.105,1.264-42.196,0.736-63.292c-0.377-15.088-1.711-30.149-2.211-45.236
		c-0.69-20.846-0.217-41.697,2.976-62.338c1.893-12.237,9.355-21.289,19.058-28.544c3.889-2.908,7.847-5.743,13.353-8.191
		c-6.495-1.51-11.87-2.642-16.692-5.27c-3.843-2.094-6.583-1.093-9.584,1.941c-14.664,14.828-29.571,29.416-44.307,44.173
		c-7.915,7.926-15.641,16.041-23.494,24.03c-1.822,1.854-3.653,3.772-5.764,5.254c-3.599,2.527-6.711,2.304-9.818-0.843
		c-2.363-2.393-4.387-5.157-6.342-7.912c-11.166-15.733-21.584-31.968-31.716-48.371c-11.102-17.973-18.081-37.402-19.858-58.65
		c-0.574-6.861-1.438-13.728-1.489-20.831c-1.167,0.395-1.836,0.406-2.044,0.722c-12.673,19.313-30.925,32.097-50.464,43.466
		c-19.442,11.313-40.324,19.46-60.905,28.301c-33.988,14.6-68.217,28.709-100.613,46.719c-8.645,4.806-16.936,10.249-25.36,15.448
		c-19.4,11.972-32.122,29.177-40.299,50.279c-9.162,23.644-15.269,48.113-20.845,72.751c-9.596,42.4-20.729,84.411-31.604,126.493
		c-8.397,32.494-17.639,64.812-23.363,97.94c-3.588,20.763-7,41.566-9.959,62.427c-4.284,30.199-10.809,59.911-18.443,89.4
		c-7.505,28.989-14.186,58.168-18.911,87.732c-4.353,27.234-7.547,54.62-10.268,82.09c-4.295,43.372,3.296,85.068,15.481,126.289
		c3.542,11.982,7.527,23.831,11.22,35.769c0.758,2.449,2.288,4.752,1.762,7.514c-2.607,0-5.215,0-7.822,0
		c-10.569-29.157-19.535-58.759-25.289-89.289c-5.203-27.609-5.98-55.336-3.398-83.28c3.501-37.892,8.703-75.523,16.223-112.826
		c4.683-23.229,10.992-46.066,16.911-68.994c8.278-32.062,13.897-64.63,18.408-97.386c5.267-38.249,13.983-75.727,23.926-112.976
		c16.31-61.106,31.729-122.433,45.466-184.177c3.338-15.006,8.401-29.507,13.998-43.838c8.318-21.3,21.685-38.276,40.907-50.886
		c16.807-11.027,34.191-20.918,52.336-29.533c33.871-16.082,68.453-30.529,103.002-45.058c18.292-7.692,35.692-17.001,52.193-28.075
		c16.191-10.866,28.664-24.966,37.471-42.205c7.461-14.604,14.772-29.279,22.675-43.655c1.747-3.178,2.919-6.666,4.496-9.943
		c2.563-5.326,2.725-10.8,2.314-16.653c-1.298-18.453-3.404-36.812-5.45-55.185c-0.351-3.157-1.031-6.05-2.508-8.901
		c-8.186-15.795-14.176-32.402-17.82-49.824c-0.585-2.796-0.79-4.791-4.84-3.832c-6.364,1.506-11.645-1.675-16.363-5.644
		c-6.289-5.291-10.83-11.955-14.464-19.235c-3.146-6.301-5.662-12.875-7.2-19.762c-4.309-19.297-8.538-38.611-12.789-57.921
		c-0.794-3.607-0.879-7.232-0.137-10.864c2.362-11.565,8.113-15.735,19.982-14.107c-0.586-5.475-1.436-10.84-1.689-16.233
		c-1.141-24.275,0.255-48.484,3.43-72.523c2.732-20.686,4.116-41.463,5.874-62.222c0.682-8.055,1.825-16.032,3.943-23.852
		c3.388-12.507,9.465-23.646,17.304-33.865c10.201-13.298,21.999-25.058,34.869-35.755c11.633-9.669,24.942-15.768,39.655-19.294
		c19.537-4.682,39.079-9.195,59.314-8.831c16.219,0.292,31.974,4.207,47.906,6.757c24.978,3.997,49.201,11.283,73.87,16.599
		c18.325,3.949,31.342,14.418,40.238,30.659c5.91,10.79,9.988,22.309,14.244,33.773c3.803,10.245,7.118,20.704,11.497,30.697
		c8.509,19.417,11.784,39.75,12.917,60.738c1.338,24.784,0.066,49.495-0.847,74.227c-0.143,3.866-0.927,7.708-1.283,10.529
		c0.277,1.668,0.651,1.858,1.318,1.749c10.032-1.649,12.877,0.072,16.117,9.759c2.179,6.516,3.073,13.253,2.337,20.041
		c-2.783,25.648-6.523,51.143-13.586,76.027c-1.132,3.988-2.451,7.992-4.268,11.703c-3.707,7.575-9.236,12.534-18.756,10.706
		c-1.756,6.648-3.349,13.171-5.211,19.617c-2.899,10.038-7.147,19.549-11.898,28.827c-1.715,3.349-2.289,6.674-2.11,10.48
		c1.007,21.339,2.683,42.711,2.224,64.031c-0.291,13.499,2.214,24.771,11.149,35.08c4.522,5.217,7.426,11.907,10.701,18.121
		c14.169,26.879,36.115,44.869,64.241,55.264c31.234,11.544,62.453,23.175,94.335,32.881c19,5.784,37.09,13.674,54.437,23.335
		c26.41,14.708,52.324,30.134,76.773,48.04c19.983,14.634,32.769,33.684,39.869,57.186c8.817,29.183,15.249,58.95,22.459,88.527
		c9.556,39.198,18.838,78.465,26.646,118.056c5.903,29.932,9.84,60.148,11.728,90.598c3,48.382,7.548,96.6,13.5,144.714
		c4.061,32.827,7.205,65.769,10.251,98.717c5.39,58.303,3.291,116.688,2.304,175.045c-0.418,24.73-2.736,49.429-4.19,74.142
		C1571.61,2000,1570.045,2000,1568.481,2000z"/>
	<path style="fill:#3A5D7A;" d="M997.483,2000c-1.426-17.883-2.856-35.765-4.276-53.648c-0.556-7.001-0.965-14.008-1.576-21.01
		c-2.672-30.662-2.927-61.427-1.54-92.135c1.574-34.834,3.671-69.637,4.87-104.499c0.681-19.801,1.423-39.605,0.517-59.343
		c-1.064-23.179-0.159-46.387-1.489-69.509c-2.199-38.237-2.215-76.504-3.228-114.757c-0.806-30.433-1.811-60.886-3.099-91.305
		c-1.411-33.309-2.939-66.596-2.273-99.926c0.322-16.134,1.536-32.261,0.92-48.402c-0.676-17.676-1.942-35.33-2.564-53.007
		c-0.632-17.962-0.165-35.907,1.139-53.862c1.373-18.895,12.105-30.907,27.404-40.039c2.235-1.334,3.782-0.906,5.202,1.285
		c4.104,6.333,8.307,12.604,12.52,18.866c1.383,2.056,1.86,4.268,1.585,6.682c-2.521,22.073-1.429,44.227-1.385,66.352
		c0.034,17.197,2.228,34.235,4.295,51.277c0.814,6.71,1.537,13.457,1.783,20.206c0.56,15.347,1.595,30.668,2.119,46.021
		c0.557,16.347,1.837,32.699,3.869,48.97c0.934,7.478,1.639,15.023,1.791,22.552c0.41,20.307,1.165,40.621,2.186,60.883
		c2.966,58.869-0.072,117.766,1.67,176.612c0.956,32.301,2.183,64.615,0.689,96.867c-1.906,41.118-2.095,82.251-3.238,123.369
		c-0.623,22.402-1.231,44.803-0.682,67.17c0.626,25.471,1.631,50.962,3.964,76.369c0.547,5.951,0.321,11.973,0.451,17.962
		C1031.9,2000,1014.691,2000,997.483,2000z"/>
	<path style="fill:#FFFFFF;" d="M1380.756,2000c-14.079,0-28.159,0-42.238,0c-2.864-2.668-3.409-6.306-4.244-9.869
		c-6.881-29.353-6.871-58.828-1.866-88.44c2.433-14.394,4.797-28.802,8.362-42.965c9.669-38.417,7.916-77.587,7.948-116.651
		c0.004-4.63-0.828-9.422,1.613-13.796c0.703-0.793,1.566-1.038,2.583-0.742c4.364,3.113,3.319,7.854,3.582,12.156
		c1.809,29.615,3.023,59.273,9.608,88.392c4.425,19.569,8.087,39.314,9.985,59.308c1.77,18.647,3.399,37.308,3.961,56.055
		c0.483,16.122,1.665,32.219,2.05,48.351C1382.168,1994.667,1382.843,1997.53,1380.756,2000z"/>
	<path style="fill:#010101;" d="M665.835,2000c-2.348-12.514-4.657-25.036-7.053-37.541c-4.216-22.005-6.957-44.21-8.274-66.555
		c-1.372-23.288,1.927-46.256,6.485-69.001c7.123-35.543,12.168-71.252,12.195-107.62c0.011-14.822,2.799-29.5,5.054-44.154
		c3.602-23.412,5.897-46.938,7.585-70.576c1.305-18.284,0.235-36.422-0.513-54.615c-0.256-6.233-1.054-12.443-1.357-18.676
		c-0.118-2.425-0.953-5.24,1.93-7.404c3.447,4.809,3.102,10.485,3.799,15.61c2.105,15.466,3.593,31.026,3.41,46.683
		c-0.061,5.209-0.377,10.392-0.777,15.592c-0.636,8.281-0.711,16.522,0.663,24.885c2.659,16.191,3.644,32.575,3.357,49.018
		c-0.355,20.331,1.079,40.567,2.763,60.826c1.12,13.473,1.032,27.086,0.796,40.624c-0.631,36.219-0.701,72.436-0.396,108.655
		c0.323,38.366-3.19,76.413-9.332,114.249c-2.086,0-4.172,0-6.258,0c-2.473-2.82-2.575-6.24-2.061-9.613
		c9.413-61.804,7.352-124.063,7.373-186.233c0.003-8.878,1.635-17.589,1.73-26.47c0.216-20.33-1.715-40.518-3.137-60.745
		c0.628-18.306-0.564-36.64,0.791-54.925c0.15-3.849-0.412-7.752,0.692-11.535c-0.297-0.984,0.702-1.97,0.04-2.981
		c-0.263,0.609,0.164,1.221-0.004,1.847c-0.679,2.976-0.851,5.977-0.74,9.011c-0.008,2.138,0.019,4.268-0.061,6.404
		c-4.244,29.639-6.482,59.394-7.194,89.348c-0.608,25.561-6.338,50.576-10.879,75.676c-3.944,21.803-7.293,43.694-5.825,65.942
		c1.888,28.613,6.896,56.819,11.572,85.069c1.044,6.309,3.658,12.611,1.445,19.206C671.05,2000,668.442,2000,665.835,2000z"/>
	<path style="fill:#FFFFFF;" d="M686.04,1716.874c2.869,26.477,3.692,52.984,2.203,79.61c-1.368,24.467-1.203,48.986-0.771,73.487
		c0.708,40.199-1.39,80.214-7.238,120.02c-0.478,3.254-1.511,6.639-0.319,10.009c-2.086,0-4.172,0-6.258,0
		c-3.116-12.627-4.65-25.543-6.959-38.317c-3.098-17.145-5.296-34.416-7.175-51.742c-3.034-27.981-0.656-55.641,5.123-82.975
		c7.941-37.561,11.382-75.501,12.164-113.815c0.34-16.634,3.342-33.068,6.315-49.439c4.118,0.859,2.106,4.138,2.138,6.219
		c0.2,13.115,0.067,26.234,0.131,39.351C685.408,1711.814,684.817,1714.432,686.04,1716.874z"/>
	<path style="fill:#010101;" d="M1351.188,1727.863c-0.041,13.255-0.612,26.535-0.018,39.762c1.541,34.28-2.37,67.92-10.153,101.254
		c-5.086,21.784-8.369,43.896-9.674,66.24c-1.285,22.001,2.875,43.464,7.174,64.881c-2.607,0-5.214,0-7.822,0
		c-0.925-10.639-3.808-20.941-5.405-31.481c-2.758-18.21-2.114-36.278-0.106-54.444c2.864-25.919,9.313-51.167,14.043-76.736
		c2.416-13.06,4.069-26.231,4.066-39.555c-0.004-17.2-0.006-34.4-0.03-51.6c-0.04-28.922,2.743-57.711,3.986-86.566
		c1.108-25.721,2.439-51.44,1.29-77.284c-1.377-30.958-1.571-61.998-0.546-93.008c0.1-3.011,0.153-6.049,3.287-8.809
		c1.585,2.987,0.978,5.578,1.016,8.01c0.27,17.457-0.134,34.95,0.861,52.364c1.293,22.628,1.237,45.281,2.254,67.91
		c0.959,21.35-1.059,42.664-2.147,63.985c-0.263,5.15,0.417,10.401,1.14,15.538c3.989,28.374,5.636,56.953,7.833,85.489
		c1.56,20.268,5.558,40.178,9.785,60.03c5.318,24.978,8.709,50.206,10.587,75.68c1.743,23.641,2.862,47.294,3.263,70.991
		c0.11,6.499,0.746,12.99,1.141,19.484c-2.086,0-4.172,0-6.258,0c-2.312-16.275-2.266-32.716-2.827-49.07
		c-1.46-42.517-5.611-84.657-14.818-126.234c-4.859-21.939-6.622-44.229-8.021-66.597c-0.632-10.101-0.265-20.312-2.447-30.297
		c-1.47-1.746-0.532-3.829-0.803-5.74c0-1.546-0.001-3.094,0-4.639c0.237-1.369-0.628-2.975,0.843-4.087
		c-1.586,1.038-0.621,2.66-0.893,4.002c0,1.553,0.003,3.102,0,4.654C1351.604,1723.953,1352.262,1725.997,1351.188,1727.863z"/>
	<path style="fill:#E3A98D;" d="M1151.836,752.113c0.361,16.659,1.092,33.335-0.766,49.976c-1.63,14.6-4.474,28.931-10.289,42.349
		c-10.348,23.879-20.678,47.807-33.783,70.376c-8.939,15.395-19.284,29.726-32.415,41.882
		c-13.297,12.311-28.623,20.699-46.571,24.022c-13.393,2.48-26.357,0.37-39.374-2.937c-43.162-10.965-74.728-37.312-99.854-73.1
		c-21.055-29.99-34.785-62.603-40.11-98.882c-2.836-19.32-6.002-38.605-7.683-58.054c-1.095-12.671-2.133-25.312-4.447-37.826
		c-1.764-9.541-0.177-18.674,3.703-27.438c2.95-6.663,5.788-13.409,9.26-19.801c8.109-14.93,11.878-30.981,13.647-47.714
		c0.958-9.06,0.988-18.218,2.801-27.189c0.258-1.275,0.377-2.58,0.677-3.844c4.583-19.296,15.026-27.471,34.953-27.888
		c13.068-0.273,26.057,0.801,39.006,2.082c16.124,1.595,32.218,1.656,48.392,1.377c26.829-0.462,53.686-1.132,80.473,1.318
		c4.662,0.426,9.335,1.021,13.918,1.953c10.099,2.053,17.53,7.709,21.794,17.206c1.705,3.796,3.407,7.617,4.744,11.552
		c7.552,22.231,16.545,43.863,27.678,64.526c10.281,19.082,14.591,39.38,14.275,60.886
		C1151.695,728.667,1151.836,740.391,1151.836,752.113z"/>
	<path style="fill:#220902;" d="M1157.093,717.313c0.178-13.033-1.294-25.833-4.57-38.493c-2.172-8.396-5.598-16.274-9.571-23.804
		c-11.939-22.63-21.156-46.361-29.352-70.506c-2.961-8.723-8.037-15.631-14.762-21.615c-1.798-1.6-3.856-2.653-6.077-3.432
		c-8.625-3.024-17.506-4.32-26.646-4.949c-39.026-2.684-78.1-0.617-117.127-1.71c-8.161-0.229-16.498-1.718-24.692-2.229
		c-13.372-0.834-26.919-2.62-40.234,1.891c-7.705,2.611-12.871,7.684-16.884,14.201c-4.867,7.903-6.51,16.78-7.452,25.944
		c-1.876,18.254-2.176,36.845-9.142,54.2c-3.773,9.399-7.882,18.708-12.538,27.697c-6.112,11.8-8.018,23.772-5.254,36.893
		c1.26,5.98,0.616,12.392,1.888,18.512l-0.688,0.356l-0.681-0.368c-4.987-9.973-11.645-19.1-14.52-30.14
		c-3.759-14.437-6.046-28.9-3.062-43.793c0.404-2.015,0.27-4.154,0.251-6.234c-0.16-17.417,1.934-34.608,4.271-51.845
		c1-7.37,1.523-14.941,2.148-22.425c1.419-16.995,1.956-34.09,5.855-50.841c3.702-15.907,11.578-29.562,22.504-41.235
		c9.754-10.421,19.585-20.848,30.888-29.782c8.748-6.915,18.523-11.548,29.016-14.528c15.446-4.387,31.247-7.614,47.194-9.234
		c9.452-0.96,19.089-0.483,28.755,0.668c19.071,2.272,37.783,6.274,56.549,10.006c13.972,2.779,27.712,6.704,41.607,9.894
		c6.822,1.566,13.728,2.935,20.197,5.548c14.413,5.822,23.357,17.475,28.99,31.122c9.805,23.758,18.624,47.931,27.467,72.073
		c4.389,11.981,5.516,24.618,6.854,37.317c2.167,20.563,0.984,41.082,1.159,61.609c0.173,20.35-2.715,40.307-10.849,59.217
		C1158.097,718,1157.599,718.005,1157.093,717.313z"/>
	<path style="fill:#E3A98D;" d="M1131.86,886.334c-0.49,24.974,1.681,49.907,0.46,74.923c-1.181,24.194-9.51,45.066-25.356,63.144
		c-12.798,14.601-27.432,27.012-44.148,36.932c-13.216,7.842-26.794,14.956-40.936,21.016c-8.943,3.832-17.082,3.964-25.917-1.277
		c-22.819-13.535-46.182-26.147-69.11-39.502c-13.84-8.062-25.951-18.213-34.946-31.783c-7.54-11.375-11.261-23.695-11.96-37.365
		c-1.169-22.862-3.146-45.682-4.783-68.52c0.015-2.28-2.165-5.061,1.483-6.514c5.95,8.229,11.877,16.474,17.854,24.683
		c22.318,30.651,52.287,49.912,88.314,61.081c38.473,11.928,71.335,3.444,99.649-24.492c18.619-18.37,31.609-40.589,43.035-63.835
		c1.147-2.333,2.277-4.674,3.415-7.012C1129.745,887.02,1130.141,885.36,1131.86,886.334z"/>
	<path style="fill:#3A5D7A;" d="M1138.79,968.095c7.835,9.482,11.772,19.812,17.277,29.21c5.413,9.241,10.939,18.375,18.527,25.995
		c2.647,2.658,2.625,4.977,1.698,8.362c-4.582,16.731-11.841,32.262-20.949,46.9c-17.056,27.409-34.401,54.638-51.682,81.906
		c-1.806,2.849-3.828,5.601-6.036,8.149c-5.683,6.56-6.099,6.599-12.079,0.639c-6.643-6.621-13.256-13.283-19.643-20.149
		c-14.545-15.635-28.784-31.535-41.085-49.061c-6.056-8.628-6.042-8.384,3.598-12.762c30.34-13.78,58.613-30.543,81.266-55.659
		c14.486-16.062,24.884-33.924,27.414-55.778C1137.362,973.54,1138.078,971.287,1138.79,968.095z"/>
	<path style="fill:#3A5D7A;" d="M985.024,1082.965c-20.775,17.601-38.4,37.107-57.211,55.39
		c-5.591,5.434-10.749,11.324-15.964,17.132c-2.65,2.951-4.35,2.478-6.662-0.555c-10.591-13.896-19.641-28.802-28.944-43.543
		c-6.671-10.57-12.854-21.383-17.528-33.051c-4.497-11.225-6.568-22.944-8.238-34.794c-0.471-3.344-1.045-6.687-1.269-10.051
		c-0.699-10.499,0.293-20.523,5.15-30.326c6.111-12.335,12.468-24.547,18.877-37.649c1.458,3.719,1.907,7.026,2.007,10.437
		c0.701,23.798,12.374,42,29.667,57.089c12.822,11.188,27.672,19.425,42.585,27.414
		C960.126,1067.227,971.928,1075.312,985.024,1082.965z"/>
	<path style="fill:#E3A98D;" d="M797.001,715.363c-0.045-3.772,0.758-7.296,2.624-10.533c1.625-2.818,3.67-5.209,7.381-4.728
		c3.689,0.478,6.623,1.486,8.278,5.716c4.567,11.675,11.447,22.187,17.811,32.938c1.467,2.477,2.785,4.845,3.066,7.867
		c1.95,21,4.642,41.91,7.798,62.765c0.365,2.413,2.201,5.583-0.163,7.346c-2.927,2.183-6.446,1.02-9.535-0.68
		c-4.672-2.573-8.179-6.405-11.323-10.601c-7.666-10.232-11.88-22.039-14.291-34.341c-3.204-16.35-6.485-32.666-10.551-48.824
		C797.529,720.029,797.356,717.673,797.001,715.363z"/>
	<path style="fill:#E2A98D;" d="M1186.551,718.417c-2.19,21.417-5.212,45.098-11.561,68.24c-1.581,5.76-2.849,11.62-5.514,17.011
		c-1.767,3.575-4.097,6.719-8.313,7.608c-2.398,0.505-4.134-0.272-4.136-3.107c-0.001-1.038,0.073-2.081,0.192-3.113
		c2.083-18.14,0.929-36.365,1.504-54.541c0.377-11.915,1.288-23.852,5.816-35.157c1.832-4.576,3.406-9.26,4.951-13.943
		c0.85-2.578,2.159-4.673,4.514-6.102c4.619-2.803,7.786-1.899,9.802,3.118C1186.067,704.058,1186.731,709.988,1186.551,718.417z"/>
	<path style="fill:#B18772;" d="M876.647,897.388c-1.987,1.831-0.611,4.428-1.483,6.513c-1.665-1.915-1.088-4.372-1.586-6.569
		c-0.248-1.474-1.315-3.404,1.704-3.056C875.737,895.314,876.192,896.351,876.647,897.388z"/>
	<path style="fill:#98776A;" d="M1131.86,886.334c-0.982,0.493-1.964,0.986-2.946,1.48c-0.158-2.213,1.308-3.611,2.27-5.529
		C1132.34,883.833,1132.267,885.066,1131.86,886.334z"/>
	<path style="fill:#52433E;" d="M875.282,894.277c-1.428,0.539-1.286,1.954-1.704,3.056c-0.395-0.899-0.91-1.768-1.15-2.707
		c-0.239-0.938-0.353-2.45,0.523-2.664C874.421,891.601,874.932,893.044,875.282,894.277z"/>
	<path style="fill:#353233;" d="M1157.093,717.313c0.498-0.046,0.996-0.051,1.495-0.015c-0.125,0.734,0.337,1.863-0.994,1.786
		C1157.394,719.072,1157.259,717.931,1157.093,717.313z"/>
	<path style="fill:#373331;" d="M833.312,729.9c0.458-0.041,0.915-0.038,1.371,0.012C834.216,730.919,833.759,730.869,833.312,729.9
		z"/>
	<path style="fill:#C9CACA;" d="M1352.512,1721.59c0.268,2.066,0.774,4.127,0.13,6.212l-0.725,0.081l-0.729-0.021
		c-0.662-2.084-0.259-4.167,0-6.251C1351.617,1720.859,1352.058,1720.852,1352.512,1721.59z"/>
	<path style="fill:#E0E1E1;" d="M686.04,1716.874c-2.195-2.126-1.431-4.894-1.455-7.406c-0.122-12.772-0.069-25.545-0.187-38.317
		c-0.023-2.509,0.88-5.261-1.271-7.439c-0.561-2.032-0.042-4.025,0.218-6.027c3.052-0.876,1.447,2.234,2.573,3.006
		C685.959,1679.418,685.999,1698.146,686.04,1716.874z"/>
	<path style="fill:#7D7C7D;" d="M685.918,1660.69c-0.858-1.002-1.716-2.004-2.573-3.006c-1.114-3.417,0.86-6.439,1.233-9.666
		c0.534-0.691,1.003-0.684,1.397,0.13C686.3,1652.33,686.795,1656.513,685.918,1660.69z"/>
	<path style="fill:#4E4E4E;" d="M685.974,1648.148c-0.464-0.062-0.929-0.105-1.397-0.13c0.184-0.669,0.416-1.928,0.546-1.917
		C686.566,1646.216,685.976,1647.324,685.974,1648.148z"/>
	<path style="fill:#434444;" d="M1351.224,1717.047c-0.158-1.174-0.366-3.337,0.341-3.243c1.872,0.247,0.736,2.071,0.81,3.265
		C1351.981,1717.578,1351.597,1717.597,1351.224,1717.047z"/>
	<path style="fill:#99999A;" d="M1351.224,1717.047c0.386-0.098,0.771-0.092,1.152,0.021c0.045,1.508,0.091,3.015,0.137,4.522
		c0,0-0.663-0.022-0.663-0.022s-0.661,0.044-0.661,0.044C1351.2,1720.09,1351.212,1718.569,1351.224,1717.047z"/>
</g>
</svg>
